<svg id="Group_3035" data-name="Group 3035" xmlns="http://www.w3.org/2000/svg" width="55.885" height="60.832" viewBox="0 0 55.885 60.832">
  <path id="Path_2296" data-name="Path 2296" d="M-298,60.682h-.005A18.4,18.4,0,0,1-316.588,43.02c6.443-6.019,7.4-10.327,8.222-15.857,5.414,7.184,10.455,9.532,18.857,10.188,5.338.418,8.031-.691,9.329-2.047C-276.367,48.775-285.793,60.816-298,60.682Zm16-21.509a24.108,24.108,0,0,1-7.657.752c-6.105-.191-12.882-2.759-17.2-7.032a24.82,24.82,0,0,1-7.067,11.13A15.814,15.814,0,0,0-298,58.1C-289.263,58.086-280.827,50.96-282,39.173Zm-21.959,2.666a2.091,2.091,0,0,0-2.092,2.094,2.094,2.094,0,0,0,2.092,2.1,2.1,2.1,0,0,0,2.1-2.1A2.1,2.1,0,0,0-303.955,41.839Zm11.793,0a2.1,2.1,0,0,0-2.095,2.094,2.1,2.1,0,0,0,2.095,2.1,2.1,2.1,0,0,0,2.095-2.1A2.1,2.1,0,0,0-292.162,41.839Zm21.981-25.893-7.238,12.183a28.016,28.016,0,0,1,3.124,7.307,101.16,101.16,0,0,1,2.052,15.445c0,3.709-1.149,6.839-3.236,8.815a10.911,10.911,0,0,1-7.122,3.019l-2.764-.014a1.288,1.288,0,0,1-1.289-1.289,1.288,1.288,0,0,1,1.288-1.289l2.765.014a8.34,8.34,0,0,0,5.343-2.3c1.574-1.492,2.436-3.958,2.436-6.951A101.626,101.626,0,0,0-276.788,36.1a25.6,25.6,0,0,0-3.108-7.115c-1.851-.5-10.028-3.122-17.866-3.122S-313.433,28.479-315.7,29a27.814,27.814,0,0,0-3.113,7.1,102.215,102.215,0,0,0-1.654,14.724c0,1.74.317,4.959,2.438,6.968a8.189,8.189,0,0,0,5.436,2.331h2.354a1.29,1.29,0,0,1,1.289,1.289,1.29,1.29,0,0,1-1.289,1.289H-312.6a10.831,10.831,0,0,1-7.207-3.044c-2.813-2.665-3.234-6.679-3.234-8.833,0-2.971.981-12.7,1.751-15.426a30.522,30.522,0,0,1,3.151-7.323c-.954-1.6-6.31-9.979-7.2-11.471a2.58,2.58,0,0,1,.393-3.143,38.906,38.906,0,0,1,27.187-11.58,38.072,38.072,0,0,1,27.186,10.924A2.577,2.577,0,0,1-270.181,15.946Zm-2.216-1.315a35.758,35.758,0,0,0-25.365-10.17,36.315,36.315,0,0,0-25.365,10.826c1.791,3.008,5.141,8.023,7.017,11.193,3.566-.792,10.091-3.2,18.348-3.2s14.789,2.4,18.347,3.182Z" transform="translate(325.705 -1.883)" fill="#eb6520"/>
  <g id="Group_3034" data-name="Group 3034" transform="translate(21.92 4.712)">
    <g id="Group_3032" data-name="Group 3032">
      <path id="Path_2297" data-name="Path 2297" d="M-296.657,15.64H-308.7l6.023-10.1Zm-10.43-.917h8.816l-4.408-7.394Z" transform="translate(308.701 -5.538)" fill="#eb6520"/>
    </g>
    <g id="Group_3033" data-name="Group 3033" transform="translate(0 2.83)">
      <path id="Path_2298" data-name="Path 2298" d="M-302.678,17.835l-6.023-10.1h12.044Zm-4.409-9.185,4.409,7.394,4.408-7.394Z" transform="translate(308.701 -7.733)" fill="#eb6520"/>
    </g>
  </g>
</svg>
