<svg id="Group_16174" data-name="Group 16174" xmlns="http://www.w3.org/2000/svg" width="46.642" height="42.464" viewBox="0 0 46.642 42.464">
  <path id="Path_2263" data-name="Path 2263" d="M1033.249,335.71a1.04,1.04,0,1,1,0-2.08h32.686a1.04,1.04,0,1,1,0,2.08Zm.9-4.441a1.044,1.044,0,0,1-1.044-1.044V310.7l-.386.3q-2.611,1.911-5.352,3.639a1,1,0,0,1-.386.143,1.03,1.03,0,0,1-1.049-.472,1.044,1.044,0,0,1,.324-1.441,94.475,94.475,0,0,0,21.926-19.255,1.047,1.047,0,0,1,1.588,0,89.529,89.529,0,0,0,7.131,7.426l1.388,1.231v-5.542a1.042,1.042,0,0,1,2.084,0v6.682a1.017,1.017,0,0,1-.081.405l-.081.115,2.166,1.755a86.934,86.934,0,0,0,9.515,6.429,1.041,1.041,0,1,1-1.049,1.8c-1.039-.6-2.046-1.221-3.028-1.841l-2.256-1.507v19.665a1.047,1.047,0,0,1-1.04,1.044Zm9.234-2.084-.038-.186V317.648a2.561,2.561,0,0,1,2.552-2.566h7.04a2.561,2.561,0,0,1,2.552,2.566V329l-.038.186h8.023l0-20.089-1.25-.906a87.131,87.131,0,0,1-11.733-10.631l-1.5-1.688-1.726,1.97a98.53,98.53,0,0,1-11.957,11.194l-.191.143v0a1.055,1.055,0,0,1,.086.406v19.6Zm10.054,0L1053.4,329V317.648a.474.474,0,0,0-.467-.477h-7.04a.469.469,0,0,0-.462.477V329l-.043.186Zm-13.584-19.2a1.045,1.045,0,0,1-.611-1.9,37.454,37.454,0,0,0,6.668-5.891,1.044,1.044,0,0,1,1.555,1.393,39.869,39.869,0,0,1-7.031,6.214A1.076,1.076,0,0,1,1039.85,309.988Z" transform="translate(-1025.765 -293.247)" fill="#eb6520"/>
</svg>
