<svg id="Group_16194" data-name="Group 16194" xmlns="http://www.w3.org/2000/svg" xmlns:xlink="http://www.w3.org/1999/xlink" width="24.428" height="45.501" viewBox="0 0 24.428 45.501">
  <defs>
    <clipPath id="clip-path">
      <rect id="Rectangle_670" data-name="Rectangle 670" width="24.428" height="45.501" fill="#eb6520" stroke="#eb6520" stroke-width="1"/>
    </clipPath>
  </defs>
  <g id="Group_16193" data-name="Group 16193" transform="translate(0 0)" clip-path="url(#clip-path)">
    <path id="Path_7231" data-name="Path 7231" d="M.594,0l20.1.008a.584.584,0,0,1,.586.586A.55.55,0,0,1,21.2.879L13.851,14.062l9.283.008a.58.58,0,0,1,.578.578.55.55,0,0,1-.073.285L6.758,45.2a.587.587,0,0,1-1.1-.3l.008-20.6H.586A.584.584,0,0,1,0,23.711L.008.586A.584.584,0,0,1,.594,0M19.7,1.181,1.181,1.173,1.173,23.125l5.081.008a.582.582,0,0,1,.586.578L6.832,42.667l15.3-27.432-9.258-.008a.49.49,0,0,1-.3-.073.58.58,0,0,1-.236-.79Z" transform="translate(0 0)" fill="#eb6520" stroke="#eb6520" stroke-width="1" fill-rule="evenodd"/>
  </g>
</svg>
