<svg xmlns="http://www.w3.org/2000/svg" xmlns:xlink="http://www.w3.org/1999/xlink" width="39.983" height="35.428" viewBox="0 0 39.983 35.428">
  <defs>
    <clipPath id="clip-path">
      <rect id="Rectangle_669" data-name="Rectangle 669" width="39.983" height="35.428" fill="#eb6520" stroke="#eb6520" stroke-width="1"/>
    </clipPath>
  </defs>
  <g id="Group_16192" data-name="Group 16192" transform="translate(0 0)">
    <g id="Group_16191" data-name="Group 16191" transform="translate(0 0)" clip-path="url(#clip-path)">
      <path id="Path_7230" data-name="Path 7230" d="M36.475,30.259V26l.007-13.646v-.073l.007-4.1-.007-.04.007-.04V6.039a1.951,1.951,0,0,0-.079-.56,2.015,2.015,0,0,0-.251-.508L34.009,1.793A1.829,1.829,0,0,0,32.434.962a1.933,1.933,0,0,0-.9.211,1.958,1.958,0,0,0-.679.62L28.7,4.971a2,2,0,0,0-.244.508,1.887,1.887,0,0,0-.079.56v6.322L28.373,26v.079l-.007,4.094.007.046-.007.04v2.314a1.913,1.913,0,0,0,1.905,1.905h4.3a1.913,1.913,0,0,0,1.905-1.9Zm.949-.514h.9a.712.712,0,0,0,.508-.211.737.737,0,0,0,.211-.5V27.227a.725.725,0,0,0-.211-.5l-.02-.02a.705.705,0,0,0-.488-.191h-.9Zm0-4.18h.9a1.654,1.654,0,0,1,1.147.461l.033.026a1.683,1.683,0,0,1,.488,1.173v1.806a1.666,1.666,0,0,1-1.668,1.661h-.9V32.58a2.859,2.859,0,0,1-2.855,2.848h-4.3a2.859,2.859,0,0,1-2.855-2.855l.007-1.879H24.984v1.879a2.847,2.847,0,0,1-2.848,2.848h-4.3a2.846,2.846,0,0,1-2.011-.844,2.813,2.813,0,0,1-.837-2.011V30.694H12.551v1.872A2.859,2.859,0,0,1,9.7,35.414H5.4A2.847,2.847,0,0,1,2.55,32.56V30.694H1.667A1.677,1.677,0,0,1,0,29.033V27.227a1.661,1.661,0,0,1,.494-1.173,1.643,1.643,0,0,1,1.173-.488H2.55l.007-12.776h-.89a1.665,1.665,0,0,1-1.173-.481V12.3A1.649,1.649,0,0,1,0,11.128v-1.8A1.661,1.661,0,0,1,.493,8.155a1.643,1.643,0,0,1,1.173-.488h.89V6.025a2.681,2.681,0,0,1,.125-.837,3.136,3.136,0,0,1,.369-.765v0L5.2,1.253A2.78,2.78,0,0,1,7.56,0,2.874,2.874,0,0,1,8.905.323a2.846,2.846,0,0,1,1.015.93L12.07,4.43a2.72,2.72,0,0,1,.369.765,2.888,2.888,0,0,1,.119.837V7.667H15V6.032a2.754,2.754,0,0,1,.488-1.6L17.64,1.259A2.841,2.841,0,0,1,18.655.33h.007A2.828,2.828,0,0,1,20,.007a2.78,2.78,0,0,1,2.36,1.253L24.51,4.437a3.069,3.069,0,0,1,.363.738v.02A2.681,2.681,0,0,1,25,6.032V7.667H27.43V6.039a2.753,2.753,0,0,1,.125-.844,2.978,2.978,0,0,1,.369-.758l2.149-3.171A2.806,2.806,0,0,1,31.1.336a2.947,2.947,0,0,1,2.683,0,2.841,2.841,0,0,1,1.015.93l2.149,3.178a2.728,2.728,0,0,1,.369.765,2.875,2.875,0,0,1,.119.831V7.667h.89a1.648,1.648,0,0,1,1.147.455l.033.033a1.659,1.659,0,0,1,.488,1.173v1.8a1.654,1.654,0,0,1-1.668,1.661h-.89Zm-25.822,7V30.18l.007-4.1-.007-.04.007-.04.007-13.646-.007-.04.007-.033V6.032a1.887,1.887,0,0,0-.079-.56,1.82,1.82,0,0,0-.251-.508v0L9.136,1.787a1.978,1.978,0,0,0-.679-.626,1.914,1.914,0,0,0-.9-.211,1.953,1.953,0,0,0-.9.211,1.916,1.916,0,0,0-.679.626L3.836,4.957a2.015,2.015,0,0,0-.251.508,1.951,1.951,0,0,0-.079.56v6.335L3.5,26V32.56A1.92,1.92,0,0,0,4.053,33.9a1.883,1.883,0,0,0,1.345.56H9.7a1.9,1.9,0,0,0,1.9-1.9Zm.956-23.95V11.84H15V8.616Zm0,4.173-.007,12.776H14.99V12.789Zm-.007,13.725v3.23h2.433l.007-3.23Zm-10,3.23v-3.23H1.667a.709.709,0,0,0-.712.712v1.806a.731.731,0,0,0,.2.5h.007a.686.686,0,0,0,.5.211Zm.007-17.9V8.616h-.89a.735.735,0,0,0-.508.2.735.735,0,0,0-.2.508v1.8a.735.735,0,0,0,.2.508l.007-.007a.686.686,0,0,0,.5.211ZM17.831,34.472h4.3a1.894,1.894,0,0,0,1.345-.56,1.922,1.922,0,0,0,.56-1.338h0V30.259l-.007-.04.007-.046v-4.18l.007-13.633V6.032a1.874,1.874,0,0,0-.079-.554l-.007-.02a1.958,1.958,0,0,0-.237-.488L21.576,1.787a1.931,1.931,0,0,0-.679-.613l-.007-.007v.007A1.834,1.834,0,0,0,20,.956V.949a1.917,1.917,0,0,0-.9.218,1.964,1.964,0,0,0-.679.62L16.269,4.964a1.886,1.886,0,0,0-.244.508,1.749,1.749,0,0,0-.086.56V8.1l.007.046-.007.04v4.18L15.933,26v6.566a1.913,1.913,0,0,0,1.9,1.905M25,8.616V11.84H27.43V8.616Zm0,4.173-.007,12.776h2.433l.007-12.776Zm-.007,13.725-.007,3.23h2.439v-3.23Zm12.44-17.9V11.84h.89a.72.72,0,0,0,.719-.712v-1.8a.713.713,0,0,0-.211-.5l-.02-.02a.705.705,0,0,0-.488-.191Z" transform="translate(-0.006 -0.001)" fill="#eb6520" stroke="#eb6520" stroke-width="1" fill-rule="evenodd"/>
    </g>
  </g>
</svg>
