<svg xmlns="http://www.w3.org/2000/svg" xmlns:xlink="http://www.w3.org/1999/xlink" width="38.772" height="53.887" viewBox="0 0 38.772 53.887">
  <defs>
    <clipPath id="clip-path">
      <rect id="Rectangle_675" data-name="Rectangle 675" width="38.772" height="53.887" transform="translate(0 0)" fill="#eb6520"/>
    </clipPath>
  </defs>
  <g id="Group_16204" data-name="Group 16204" transform="translate(0 0.001)">
    <g id="Group_16203" data-name="Group 16203" transform="translate(0 -0.001)" clip-path="url(#clip-path)">
      <path id="Path_7242" data-name="Path 7242" d="M23.916,53.887a1.077,1.077,0,0,1-.776-1.826,10.959,10.959,0,0,0,3.056-10.8A7.122,7.122,0,0,1,22.63,43.19,1.078,1.078,0,0,1,21.385,41.9a10.64,10.64,0,0,0-1.217-7.8,8.831,8.831,0,0,1-1.733,3.753c-.185.22-.407.468-.654.741-2.311,2.567-6.18,6.863-1.438,13.561a1.078,1.078,0,0,1-1.106,1.677C5.909,51.827,1.1,46.34.092,36.558c-.874-8.515,4.757-18.475,5-18.9a1.078,1.078,0,0,1,2,.712,13.669,13.669,0,0,0,.754,6.7c1.044-4.022,4.112-8.681,7.135-12.192C19.322,7.837,18.211,1.334,18.2,1.269a1.078,1.078,0,0,1,1.638-1.1c.294.187,7.2,4.655,7.788,12.131.421,5.4.669,7.85,1.895,9.9A11.225,11.225,0,0,1,34.09,14.84a1.077,1.077,0,0,1,1.659.955c-.087,1.959-.063,7.525,1.085,9.721,1.076,2.055,3.725,11.709.072,19.3-2.314,4.809-6.616,7.854-12.785,9.052a1.05,1.05,0,0,1-.205.02M5.01,22.8c-1.5,3.562-3.251,8.884-2.773,13.543.811,7.905,4.217,12.535,10.937,14.712-3.366-6.827.863-11.523,3.006-13.9.227-.253.433-.48.6-.684a8.628,8.628,0,0,0,1.532-5.125,1.077,1.077,0,0,1,1.816-.82,12.992,12.992,0,0,1,3.644,9.937,3.3,3.3,0,0,0,1.572-1.963,1.077,1.077,0,0,1,1.977-.262,13.046,13.046,0,0,1-.574,12.709,13.717,13.717,0,0,0,8.214-7.057c3.25-6.752.886-15.595-.039-17.365-1.078-2.06-1.326-5.8-1.361-8.315a12.245,12.245,0,0,0-2.2,6.693,1.078,1.078,0,0,1-1.853.748c-3.267-3.388-3.49-6.254-4.031-13.177C25.15,8.294,22.4,5.134,20.5,3.422a16.723,16.723,0,0,1-3.892,10.87c-4.189,4.866-8.083,11.614-6.733,14.931A1.078,1.078,0,0,1,8,30.246,20.26,20.26,0,0,1,5.01,22.8" transform="translate(0 0.001)" fill="#eb6520"/>
    </g>
  </g>
</svg>
