<svg xmlns="http://www.w3.org/2000/svg" xmlns:xlink="http://www.w3.org/1999/xlink" width="40.01" height="50.435" viewBox="0 0 40.01 50.435">
  <defs>
    <clipPath id="clip-path">
      <rect id="Rectangle_668" data-name="Rectangle 668" width="40.01" height="50.435" transform="translate(-3)" fill="#eb6520" stroke="#eb6520" stroke-linecap="round" stroke-width="1"/>
    </clipPath>
  </defs>
  <g id="Group_16190" data-name="Group 16190" transform="translate(3 0)">
    <g id="Group_16189" data-name="Group 16189" transform="translate(0 0)" clip-path="url(#clip-path)">
      <path id="Path_7229" data-name="Path 7229" d="M17,1.818c-.94,1.411-2.125,3.111-3.436,4.974-4.169,5.986-9.522,13.691-11,17.226a15.781,15.781,0,0,0-1.266,6.1,14.689,14.689,0,0,0,2.55,8.265,15.26,15.26,0,0,0,6.755,5.48,16.8,16.8,0,0,0,12.8,0,15.385,15.385,0,0,0,6.764-5.48A14.744,14.744,0,0,0,32.7,30.122a15.766,15.766,0,0,0-1.257-6.1c-1.465-3.536-6.836-11.24-11.005-17.226C19.135,4.929,17.95,3.229,17,1.818M12.506,6.05C14.116,3.744,15.545,1.682,16.449.3a.634.634,0,0,1,.19-.19.661.661,0,0,1,.913.181c.9,1.384,2.333,3.445,3.952,5.76,4.2,6.032,9.612,13.79,11.141,17.471A16.822,16.822,0,0,1,34,30.122a15.994,15.994,0,0,1-2.767,8.989,16.611,16.611,0,0,1-7.325,5.968A17.994,17.994,0,0,1,17,46.435a17.8,17.8,0,0,1-6.891-1.356A16.636,16.636,0,0,1,2.776,39.11,16,16,0,0,1,0,30.122a17,17,0,0,1,1.365-6.6C2.894,19.84,8.3,12.081,12.506,6.05" transform="translate(0 0.001)" fill="#eb6520" stroke="#eb6520" stroke-linecap="round" stroke-width="1" fill-rule="evenodd"/>
    </g>
  </g>
</svg>
