<svg id="Group_16178" data-name="Group 16178" xmlns="http://www.w3.org/2000/svg" xmlns:xlink="http://www.w3.org/1999/xlink" width="55" height="54" viewBox="0 0 55 54">
  <defs>
    <clipPath id="clip-path">
      <rect id="Rectangle_656" data-name="Rectangle 656" width="55" height="54" fill="none" stroke="#eb6520" stroke-width="1"/>
    </clipPath>
  </defs>
  <g id="Group_16177" data-name="Group 16177" clip-path="url(#clip-path)">
    <path id="Path_7218" data-name="Path 7218" d="M30.383,50.547a14.965,14.965,0,1,0,0-21.163A14.965,14.965,0,0,0,30.383,50.547Z" transform="translate(-1.682 -1.617)" fill="none" stroke="#eb6520" stroke-miterlimit="10" stroke-width="2"/>
    <line id="Line_11" data-name="Line 11" x1="21.163" y2="21.163" transform="translate(28.701 27.766)" fill="none" stroke="#eb6520" stroke-miterlimit="10" stroke-width="2"/>
    <path id="Path_7219" data-name="Path 7219" d="M39.421,29.156a11.234,11.234,0,0,0-9.259,9.229" transform="translate(-1.951 -1.886)" fill="none" stroke="#eb6520" stroke-linecap="round" stroke-miterlimit="10" stroke-width="2"/>
    <path id="Path_7220" data-name="Path 7220" d="M10.353,53.377h0A9.353,9.353,0,0,1,1,44.024V10.353a9.353,9.353,0,1,1,18.706,0V44.024A9.353,9.353,0,0,1,10.353,53.377Z" transform="translate(-0.065 -0.065)" fill="none" stroke="#eb6520" stroke-miterlimit="10" stroke-width="2"/>
    <line id="Line_12" data-name="Line 12" x2="20" transform="translate(0 27)" fill="none" stroke="#eb6520" stroke-miterlimit="10" stroke-width="2"/>
    <line id="Line_13" data-name="Line 13" y1="7.275" x2="7.275" transform="translate(0.892 27.455)" fill="none" stroke="#eb6520" stroke-miterlimit="10" stroke-width="2"/>
    <line id="Line_14" data-name="Line 14" y1="15.212" x2="15.211" transform="translate(0.892 27.454)" fill="none" stroke="#eb6520" stroke-miterlimit="10" stroke-width="2"/>
    <line id="Line_15" data-name="Line 15" y1="16.534" x2="16.534" transform="translate(2.876 32.084)" fill="none" stroke="#eb6520" stroke-miterlimit="10" stroke-width="2"/>
    <line id="Line_16" data-name="Line 16" y1="12.566" x2="12.566" transform="translate(6.845 40.02)" fill="none" stroke="#eb6520" stroke-miterlimit="10" stroke-width="2"/>
  </g>
</svg>
