<svg xmlns="http://www.w3.org/2000/svg" xmlns:xlink="http://www.w3.org/1999/xlink" width="296.379" height="56.483" viewBox="0 0 296.379 56.483">
  <defs>
    <clipPath id="clip-path">
      <rect id="Rectangle_617" data-name="Rectangle 617" width="296.379" height="56.483" fill="none"/>
    </clipPath>
  </defs>
  <g id="Group_3281" data-name="Group 3281" transform="translate(0 0)">
    <path id="Path_2356" data-name="Path 2356" d="M189.132,21.828V7.724h-9.623v16.9Z" transform="translate(-54.099 -2.327)" fill="#fff"/>
    <rect id="Rectangle_616" data-name="Rectangle 616" width="9.604" height="26.171" transform="translate(137.105 5.396)" fill="#fff"/>
    <path id="Path_2357" data-name="Path 2357" d="M212.683,0V12.422h10.574l-6.906,19.145h10.313l6.58-20.993V5.4H221.881V0Z" transform="translate(-64.096 0)" fill="#fff"/>
    <path id="Path_2358" data-name="Path 2358" d="M266.6,21.828V7.724h-9.615v16.9Z" transform="translate(-77.447 -2.327)" fill="#fff"/>
    <g id="Group_3191" data-name="Group 3191" transform="translate(0 0)">
      <g id="Group_3190" data-name="Group 3190" clip-path="url(#clip-path)">
        <line id="Line_3" data-name="Line 3" x2="239.16" transform="translate(0.227 37.136)" fill="none" stroke="#fff" stroke-width="1.406"/>
        <path id="Path_2359" data-name="Path 2359" d="M29.641,33.848H18.055V19.024c0-2.985-.752-3.963-3.611-3.963H11.585V33.848H0V8.162H17.3q6.62,0,9.178,1.761c2.106,1.468,3.16,4.306,3.16,8.562Zm13.692,0H31.748V8.162H43.333Zm29.641-2.74c-2.658,2.4-6.269,3.621-10.783,3.621-5.166,0-9.128-1.028-11.886-3.131a9.447,9.447,0,0,1-3.862-7.975V8.162H58.029V23.427c0,3.522,1.254,5.284,3.812,5.284a3.091,3.091,0,0,0,3.11-1.663,9.157,9.157,0,0,0,.5-3.62V18.338q0-3.962-2.709-3.963a2.2,2.2,0,0,0-2.056.831l1.3-6.8a6.289,6.289,0,0,1,1.153-.391,11.3,11.3,0,0,1,3.209-.44c3.812-.049,6.62,1.223,8.425,3.914q2.257,3.3,2.257,9.1c0,4.55-1.354,8.073-4.063,10.519m16.853-9.1L78.242,24.748V8.162H89.828Zm27.83,11.84H92.03V27.586h10.732v-9.2c0-2.2-1.254-3.327-3.761-3.327H92.03v-6.9h11.585c3.963,0,6.771.881,8.476,2.642,1.5,1.566,2.257,4.012,2.257,7.387v9.394h3.31Z" transform="translate(0 -2.282)" fill="#fff"/>
        <path id="Path_2360" data-name="Path 2360" d="M301.349,20.146c0-6.585-1.719-13.37-8.789-13.37-5.327,0-7.025,6.694-7.025,6.694a50.5,50.5,0,0,0-1.29-6.032h-9.986s2.208,6.432,2.366,9.819c.129,2.79-1.339,16.351-1.339,16.351h9.664l.789-13.561c.159-2.79,1.454-6.228,3.33-6.228,2.032,0,2.665,2.69,2.665,6.133,0,6.077-1.156,7.684-2.621,7.684a2.714,2.714,0,0,1-1.669-.653v5.979s1.334,1.1,5.2,1.1c6.423,0,8.706-7.079,8.706-13.915" transform="translate(-82.654 -2.042)" fill="#fff"/>
        <path id="Path_2361" data-name="Path 2361" d="M334.271,33.895V18.239c0-8.676-4.116-10.515-10.276-10.515h-9.154v7.027h7.034c2.074,0,2.781.45,2.781,3.644v15.5Z" transform="translate(-94.884 -2.328)" fill="#fff"/>
        <path id="Path_2362" data-name="Path 2362" d="M12.038,74.071H9.919V68.015A3.357,3.357,0,0,0,9.495,66a2.516,2.516,0,0,0-2.018-.767H2.954V63.474H7.476a7.665,7.665,0,0,1,2.159.242,3.24,3.24,0,0,1,1.716,1.292,5.3,5.3,0,0,1,.686,3.008Zm-6.964,0H2.954V68.2l2.12-1.029Zm14.8,0h-5.31V72.316h3.19v-6a1.054,1.054,0,0,0-.384-.847,1.326,1.326,0,0,0-.848-.242H14.809V63.474h1.716a3.647,3.647,0,0,1,2.422.687,2.615,2.615,0,0,1,.929,2.159Zm4.888-4.925-2.12,1.091V63.474h2.12ZM35.486,65.23H34.093v8.841h-2.12V65.23H26.786V63.474h8.7Zm12.561,7.408a4.544,4.544,0,0,1-3.835,1.8,5.2,5.2,0,0,1-1.615-.222V72.477a4.1,4.1,0,0,0,1.615.222,2.4,2.4,0,0,0,2.2-1.292,5.463,5.463,0,0,0,.565-2.684,5.077,5.077,0,0,0-.626-2.6,2.18,2.18,0,0,0-1.958-1.251c-1.353,0-2.4,1.191-3.149,3.593a27.478,27.478,0,0,0-.706,3.27l-.4,2.341H37.812L38.62,70.3a15.3,15.3,0,0,0,.343-2.059,15.358,15.358,0,0,0-.847-2.987c-.222-.626-.444-1.232-.666-1.777H39.77c.1.242.242.666.464,1.252a12.811,12.811,0,0,1,.4,1.453,4.193,4.193,0,0,1,7.227-1.494A6.321,6.321,0,0,1,49.117,68.7a6.233,6.233,0,0,1-1.07,3.936m12.139,1.433H51.1V72.316h5.773v-4.3a3.684,3.684,0,0,0-.4-2.1,2.507,2.507,0,0,0-2.039-.686H51.141V63.474h3.291a7.734,7.734,0,0,1,2.18.242,2.9,2.9,0,0,1,1.7,1.292,5.677,5.677,0,0,1,.686,3.008v4.3h1.191Zm19.232,0h-9.75v-10.6h5.188a6.674,6.674,0,0,1,2.139.263,3.334,3.334,0,0,1,1.736,1.292,5.1,5.1,0,0,1,.687,2.987ZM77.3,72.316v-4.3a3.066,3.066,0,0,0-.525-1.958,2.375,2.375,0,0,0-1.918-.828H71.786v7.086ZM90.364,65.23l-3.876,8.841H84.126L88,65.23H81.8V60.042h2.12v3.432h6.439Zm13.166,8.841h-2.12V68.015a2.993,2.993,0,0,0-.505-1.958,2.415,2.415,0,0,0-1.937-.828H96.505v6.439a2.486,2.486,0,0,1-.344,1.353,2.984,2.984,0,0,1-2.584,1.292,3.137,3.137,0,0,1-1.434-.262V72.336a1.552,1.552,0,0,0,1.413.182,1.117,1.117,0,0,0,.828-1.191v-6.1H92.468V63.474h6.5a7.665,7.665,0,0,1,2.159.242,3.24,3.24,0,0,1,1.716,1.292,5.3,5.3,0,0,1,.687,3.008Zm14.863-5.611a5.927,5.927,0,0,1-1.736,4.279,5.686,5.686,0,0,1-4.2,1.756q-5.934,0-5.934-6.035V63.474h2.12v5.773a3.06,3.06,0,0,0,1.776-.424,1.712,1.712,0,0,0,.928-1.231,5.287,5.287,0,0,0,.081-1.211V63.474h2.12v2.907A3.942,3.942,0,0,1,112.7,69a5.142,5.142,0,0,1-3.815,1.494c.343,1.534,1.514,2.3,3.533,2.3a3.627,3.627,0,0,0,2.624-1.13,4.2,4.2,0,0,0,1.231-3.109V63.474h2.12ZM131.8,72.638a4.546,4.546,0,0,1-3.835,1.8,5.2,5.2,0,0,1-1.615-.222V72.477a4.1,4.1,0,0,0,1.615.222,2.4,2.4,0,0,0,2.2-1.292,5.463,5.463,0,0,0,.565-2.684,5.084,5.084,0,0,0-.625-2.6,2.181,2.181,0,0,0-1.958-1.251c-1.353,0-2.4,1.191-3.149,3.593a27.761,27.761,0,0,0-.706,3.27l-.4,2.341h-2.322l.808-3.775a15.3,15.3,0,0,0,.343-2.059,15.3,15.3,0,0,0-.847-2.987c-.222-.626-.444-1.232-.666-1.777h2.322c.1.242.242.666.465,1.252a13.107,13.107,0,0,1,.4,1.453,4.193,4.193,0,0,1,7.227-1.494,6.325,6.325,0,0,1,1.251,4.017,6.233,6.233,0,0,1-1.07,3.936m13.006,1.433h-2.12V68.015A3.357,3.357,0,0,0,142.267,66a2.516,2.516,0,0,0-2.018-.767h-4.522V63.474h4.522a7.665,7.665,0,0,1,2.159.242,3.24,3.24,0,0,1,1.716,1.292,5.3,5.3,0,0,1,.687,3.008Zm-6.965,0h-2.12V68.2l2.12-1.029Zm26.623,0h-2.12V68.015A3.352,3.352,0,0,0,161.925,66a2.515,2.515,0,0,0-2.018-.767H157.02v8.841H154.9v-10.6h5.006a7.674,7.674,0,0,1,2.16.242,3.24,3.24,0,0,1,1.716,1.292,5.307,5.307,0,0,1,.686,3.008Zm5.214,0h-2.12v-10.6h2.12Zm12.336-1.716a4.553,4.553,0,0,1-4.078,2.08,5.409,5.409,0,0,1-3.9-1.313,4.377,4.377,0,0,1-1.272-3.33V63.474h2.119v6.318a2.818,2.818,0,0,0,.909,2.22,3.038,3.038,0,0,0,2.139.747,2.6,2.6,0,0,0,2.281-1.251,4.955,4.955,0,0,0,.767-2.705,7.594,7.594,0,0,0-.262-2.563,1.81,1.81,0,0,0-1.877-1.272,2.454,2.454,0,0,0-2.059,1.01v-2a4.028,4.028,0,0,1,2.341-.747,3.471,3.471,0,0,1,3.089,1.494,6.269,6.269,0,0,1,.908,4.077,6.973,6.973,0,0,1-1.11,3.553m5.78-3.21-2.12,1.091V63.474h2.12Zm11.569,4.925h-9.084V72.316h5.773v-4.3a3.684,3.684,0,0,0-.4-2.1,2.508,2.508,0,0,0-2.039-.686h-3.291V63.474h3.291a7.725,7.725,0,0,1,2.18.242,2.9,2.9,0,0,1,1.7,1.292,5.67,5.67,0,0,1,.687,3.008v4.3h1.19Zm11.572,0h-2.12V68.015A3.352,3.352,0,0,0,208.4,66a2.516,2.516,0,0,0-2.018-.767h-4.522V63.474h4.522a7.665,7.665,0,0,1,2.159.242,3.235,3.235,0,0,1,1.716,1.292,5.3,5.3,0,0,1,.687,3.008Zm-6.965,0h-2.119V68.2l2.119-1.029Zm24.907-8.841-3.875,8.841h-2.362l3.876-8.841h-6.2V60.042h2.12v3.432h6.439Zm11.148,7.186a4.617,4.617,0,0,1-4.078,2.019,5.3,5.3,0,0,1-3.856-1.292,4.523,4.523,0,0,1-1.251-3.351V63.474h5.39a4.668,4.668,0,0,1,3.451,1.252,5.679,5.679,0,0,1,1.413,4.2,6,6,0,0,1-1.07,3.492m-3.876-7.186h-3.189v4.562a2.861,2.861,0,0,0,.888,2.281,2.99,2.99,0,0,0,2.1.686,2.644,2.644,0,0,0,2.322-1.251,4.421,4.421,0,0,0,.706-2.705c-.1-2.382-1.029-3.573-2.826-3.573" transform="translate(-0.89 -18.095)" fill="#fff"/>
        <path id="Path_2363" data-name="Path 2363" d="M396.1,7.879H357.353a6.119,6.119,0,0,0-6.064,5.4h-.119V49.825h.07v2.913a6.117,6.117,0,0,0,6.113,6.12H396.1a6.112,6.112,0,0,0,6.113-6.12V14a6.112,6.112,0,0,0-6.113-6.12m-4.255,23.069c-.035.58-.084,1.153-.154,1.712a23.9,23.9,0,0,1-3.738,10.417A26.1,26.1,0,0,1,377,52.2l-.091.042h-.44l-.084-.042a26.079,26.079,0,0,1-10.962-9.124,23.893,23.893,0,0,1-3.731-10.417c-.07-.559-.119-1.132-.154-1.712V21.46l.489-.126a6.462,6.462,0,0,0,4.7-4.345l.119-.419h19.687l.119.419a6.438,6.438,0,0,0,4.7,4.345l.489.126Z" transform="translate(-105.832 -2.374)" fill="#fff"/>
        <path id="Path_2364" data-name="Path 2364" d="M390.511,22.229H373A7.891,7.891,0,0,1,367.98,26.9v6.553a27.762,27.762,0,0,0,.2,3.36,22.557,22.557,0,0,0,3.507,9.8,24.578,24.578,0,0,0,10.074,8.474,24.511,24.511,0,0,0,10.067-8.474,22.381,22.381,0,0,0,3.507-9.8,27.745,27.745,0,0,0,.2-3.36V26.9a7.936,7.936,0,0,1-5.023-4.667m3.835,11.213a27.459,27.459,0,0,1-.189,3.256,21.574,21.574,0,0,1-3.353,9.39,23.2,23.2,0,0,1-9.047,7.8,23.1,23.1,0,0,1-9.047-7.8,21.486,21.486,0,0,1-3.353-9.39,27.441,27.441,0,0,1-.2-3.256l.007-3.57h-.007V27.587a9.061,9.061,0,0,0,4.653-4.311H389.7a9.073,9.073,0,0,0,4.646,4.311Z" transform="translate(-110.898 -6.699)" fill="#fff"/>
      </g>
    </g>
  </g>
</svg>
