<svg xmlns="http://www.w3.org/2000/svg" xmlns:xlink="http://www.w3.org/1999/xlink" width="643.99" height="122.731" viewBox="0 0 643.99 122.731">
  <defs>
    <clipPath id="clip-path">
      <rect id="Rectangle_2" data-name="Rectangle 2" width="65.854" height="77.508" fill="none"/>
    </clipPath>
  </defs>
  <g id="Group_3208" data-name="Group 3208" transform="translate(-93.884 -498.362)">
    <path id="Path_1" data-name="Path 1" d="M294.3,536.733V506.086h-20.91V542.8Z" transform="translate(92.988 4.001)" fill="#b91f1d"/>
    <rect id="Rectangle_1" data-name="Rectangle 1" width="20.868" height="56.864" transform="translate(391.793 510.086)" fill="#b91f1d"/>
    <path id="Path_2" data-name="Path 2" d="M351.246,521.337V510.085H326.555V498.362H306.567v26.99h22.978l-15.006,41.6h22.409Z" transform="translate(110.172 0)" fill="#b91f1d"/>
    <path id="Path_3" data-name="Path 3" d="M371.758,536.733V506.086H350.866V542.8Z" transform="translate(133.12 4.001)" fill="#b91f1d"/>
    <line id="Line_1" data-name="Line 1" x2="519.659" transform="translate(94.379 579.054)" fill="none" stroke="#eb6520" stroke-width="1.406"/>
    <path id="Path_4" data-name="Path 4" d="M158.289,563.026H133.115V530.815c0-6.485-1.635-8.611-7.847-8.611h-6.212v40.822H93.884V507.214h37.6q14.384,0,19.942,3.827c4.577,3.189,6.866,9.356,6.866,18.6Zm29.751,0H162.867V507.214H188.04Zm64.406-5.954c-5.776,5.21-13.621,7.866-23.429,7.866-11.224,0-19.834-2.231-25.827-6.8-5.557-4.148-8.392-9.993-8.392-17.328V507.214h25.173v33.169c0,7.654,2.725,11.481,8.282,11.481,3.379,0,5.557-1.17,6.757-3.614.764-1.6,1.09-4.252,1.09-7.867V529.326q0-8.609-5.885-8.61c-2.288,0-3.813.638-4.468,1.807l2.834-14.777a13.672,13.672,0,0,1,2.506-.85,24.537,24.537,0,0,1,6.974-.957c8.282-.106,14.385,2.657,18.307,8.5q4.9,7.175,4.9,19.774C261.274,544.1,258.332,551.757,252.446,557.072ZM289.065,537.3l-25.173,5.952V507.214h25.173Zm60.47,25.726H293.85V549.418h23.32V529.432c0-4.784-2.725-7.229-8.173-7.229H293.85V507.214h25.172c8.61,0,14.713,1.914,18.418,5.742,3.268,3.4,4.9,8.716,4.9,16.051v20.411h7.192Z" transform="translate(0 3.923)" fill="#eb6520"/>
    <g id="Group_1" data-name="Group 1" transform="translate(510.214 508.648)">
      <path id="Path_5" data-name="Path 5" d="M427,534.188c0-14.307-3.734-29.05-19.1-29.05-11.575,0-15.264,14.544-15.264,14.544a109.7,109.7,0,0,0-2.8-13.107h-21.7s4.8,13.975,5.142,21.336c.277,6.063-2.91,35.528-2.91,35.528h21l1.714-29.465c.347-6.063,3.159-13.533,7.237-13.533,4.416,0,5.79,5.843,5.79,13.325,0,13.205-2.512,16.7-5.7,16.7a5.9,5.9,0,0,1-3.626-1.419v12.991s2.9,2.388,11.3,2.388c13.955,0,18.916-15.379,18.916-30.234" transform="translate(-368.144 -505.138)" fill="#b91f1d"/>
      <path id="Path_6" data-name="Path 6" d="M450.946,562.951V528.934c0-18.854-8.944-22.848-22.33-22.848h-19.89v15.267h15.287c4.507,0,6.042.979,6.042,7.92v33.678Z" transform="translate(-347.123 -504.647)" fill="#b91f1d"/>
    </g>
    <g id="Group_2" data-name="Group 2" transform="translate(98.37 589.508)">
      <path id="Path_7" data-name="Path 7" d="M116.576,588.888h-4.606V575.73c0-2.194-.307-3.642-.92-4.387a5.467,5.467,0,0,0-4.387-1.667H96.839v-3.815h9.825a16.652,16.652,0,0,1,4.694.526,7.041,7.041,0,0,1,3.728,2.807c1.008,1.447,1.491,3.641,1.491,6.536Zm-15.132,0H96.839V576.125l4.606-2.238Zm32.162,0H122.071v-3.816H129V572.046a2.29,2.29,0,0,0-.833-1.843,2.882,2.882,0,0,0-1.843-.527H122.6v-3.815h3.728a7.927,7.927,0,0,1,5.263,1.491,5.683,5.683,0,0,1,2.017,4.694Zm10.623-10.7-4.606,2.368V565.861h4.606Zm23.3-8.51H164.5v19.212h-4.606V569.676H148.621v-3.815h18.9Zm27.292,16.1c-1.885,2.544-4.65,3.861-8.334,3.9a11.261,11.261,0,0,1-3.508-.482v-3.773a8.9,8.9,0,0,0,3.508.483,5.216,5.216,0,0,0,4.782-2.807,11.879,11.879,0,0,0,1.228-5.833,11.026,11.026,0,0,0-1.36-5.658,4.737,4.737,0,0,0-4.255-2.721c-2.939,0-5.219,2.588-6.842,7.807A59.781,59.781,0,0,0,178.5,583.8l-.877,5.088H172.58l1.755-8.2a33.3,33.3,0,0,0,.745-4.475,33.338,33.338,0,0,0-1.843-6.491c-.481-1.359-.964-2.675-1.447-3.859h5.044c.219.526.525,1.447,1.008,2.719a28.182,28.182,0,0,1,.877,3.157c1.36-4.035,4.386-6.491,8.466-6.491a8.734,8.734,0,0,1,7.236,3.245,13.726,13.726,0,0,1,2.719,8.729C197.186,580.773,196.44,583.625,194.818,585.773Zm26.375,3.115H201.454v-3.816H214V575.73c0-2.326-.307-3.861-.877-4.562-.833-1.009-2.28-1.492-4.43-1.492h-7.15v-3.815h7.15a16.779,16.779,0,0,1,4.736.526,6.3,6.3,0,0,1,3.686,2.807,12.338,12.338,0,0,1,1.491,6.536v9.342h2.588Zm41.786,0H241.8V565.861h11.271a14.516,14.516,0,0,1,4.65.569,7.258,7.258,0,0,1,3.772,2.807c1.009,1.36,1.491,3.554,1.491,6.493Zm-4.6-3.816V575.73a6.657,6.657,0,0,0-1.142-4.255,5.157,5.157,0,0,0-4.167-1.8H246.4v15.4Zm28.391-15.4-8.422,19.212h-5.131l8.42-19.212H268.169V558.405h4.606v7.456h13.992Zm28.607,19.212h-4.6V575.73a6.516,6.516,0,0,0-1.1-4.255,5.248,5.248,0,0,0-4.211-1.8H300.11v13.991a5.4,5.4,0,0,1-.745,2.939,6.484,6.484,0,0,1-5.614,2.808,6.814,6.814,0,0,1-3.115-.571v-3.728a3.373,3.373,0,0,0,3.071.395,2.426,2.426,0,0,0,1.8-2.588V569.676h-4.165v-3.815h14.122a16.653,16.653,0,0,1,4.694.526,7.042,7.042,0,0,1,3.728,2.807c1.009,1.447,1.491,3.641,1.491,6.536Zm32.3-12.194a12.882,12.882,0,0,1-3.772,9.3,12.356,12.356,0,0,1-9.123,3.817c-8.6,0-12.9-4.388-12.9-13.116V565.861h4.606v12.544a6.646,6.646,0,0,0,3.86-.922,3.722,3.722,0,0,0,2.018-2.674,11.488,11.488,0,0,0,.176-2.632v-6.315h4.605v6.315a8.562,8.562,0,0,1-1.843,5.7c-1.667,1.975-4.43,3.027-8.29,3.247.745,3.333,3.29,5,7.675,5a7.882,7.882,0,0,0,5.7-2.457,9.122,9.122,0,0,0,2.675-6.753V565.861h4.606Zm29.138,9.079c-1.885,2.544-4.648,3.861-8.332,3.9a11.264,11.264,0,0,1-3.51-.482v-3.773a8.9,8.9,0,0,0,3.51.483,5.215,5.215,0,0,0,4.78-2.807,11.879,11.879,0,0,0,1.228-5.833,11.026,11.026,0,0,0-1.36-5.658,4.735,4.735,0,0,0-4.254-2.721c-2.939,0-5.22,2.588-6.843,7.807a60.107,60.107,0,0,0-1.535,7.106l-.877,5.088h-5.044l1.755-8.2a33.291,33.291,0,0,0,.745-4.475,33.392,33.392,0,0,0-1.841-6.491c-.483-1.359-.965-2.675-1.448-3.859h5.044c.219.526.527,1.447,1.009,2.719a28.1,28.1,0,0,1,.876,3.157c1.36-4.035,4.387-6.491,8.466-6.491a8.732,8.732,0,0,1,7.236,3.245,13.735,13.735,0,0,1,2.72,8.729C379.179,580.773,378.432,583.625,376.809,585.773Zm28.261,3.115h-4.6V575.73c0-2.194-.308-3.642-.922-4.387a5.467,5.467,0,0,0-4.387-1.667h-9.824v-3.815h9.824a16.651,16.651,0,0,1,4.694.526,7.041,7.041,0,0,1,3.728,2.807c1.01,1.447,1.491,3.641,1.491,6.536Zm-15.131,0h-4.606V576.125l4.606-2.238Zm57.847,0H443.18V575.73c0-2.194-.307-3.642-.921-4.387a5.466,5.466,0,0,0-4.386-1.667H431.6v19.212h-4.606V565.861h10.878a16.648,16.648,0,0,1,4.692.526,7.03,7.03,0,0,1,3.728,2.807c1.009,1.447,1.492,3.641,1.492,6.536Zm11.329,0h-4.605V565.861h4.605Zm26.805-3.728a9.893,9.893,0,0,1-8.861,4.517c-3.684,0-6.491-.965-8.464-2.851a9.516,9.516,0,0,1-2.764-7.238V565.861h4.605v13.727a6.128,6.128,0,0,0,1.975,4.826,6.607,6.607,0,0,0,4.648,1.623,5.653,5.653,0,0,0,4.956-2.72,10.778,10.778,0,0,0,1.667-5.877,16.517,16.517,0,0,0-.569-5.571,3.933,3.933,0,0,0-4.08-2.763,5.335,5.335,0,0,0-4.474,2.192v-4.342a8.763,8.763,0,0,1,5.088-1.622,7.544,7.544,0,0,1,6.711,3.245c1.535,2.149,2.192,5.132,1.973,8.86A15.174,15.174,0,0,1,485.919,585.16Zm12.557-6.974-4.6,2.368V565.861h4.6Zm25.138,10.7H503.877v-3.816h12.545V575.73c0-2.326-.308-3.861-.878-4.562-.833-1.009-2.281-1.492-4.431-1.492h-7.148v-3.815h7.148a16.786,16.786,0,0,1,4.738.526,6.3,6.3,0,0,1,3.684,2.807,12.324,12.324,0,0,1,1.491,6.536v9.342h2.588Zm25.144,0h-4.606V575.73c0-2.194-.306-3.642-.921-4.387a5.466,5.466,0,0,0-4.386-1.667H529.02v-3.815h9.826a16.647,16.647,0,0,1,4.692.526,7.042,7.042,0,0,1,3.728,2.807c1.009,1.447,1.492,3.641,1.492,6.536Zm-15.133,0H529.02V576.125l4.606-2.238Zm54.119-19.212-8.42,19.212h-5.132l8.422-19.212H569.147V558.405h4.605v7.456h13.992Zm24.221,15.614a10.03,10.03,0,0,1-8.859,4.387c-3.64,0-6.447-.921-8.378-2.807a9.832,9.832,0,0,1-2.719-7.282V565.861h11.71a10.144,10.144,0,0,1,7.5,2.719c2.062,2.061,3.071,5.088,3.071,9.123A13.036,13.036,0,0,1,611.966,585.29Zm-8.42-15.614h-6.93v9.912a6.219,6.219,0,0,0,1.929,4.957,6.5,6.5,0,0,0,4.562,1.492,5.745,5.745,0,0,0,5.044-2.72,9.6,9.6,0,0,0,1.535-5.877C609.466,572.265,607.448,569.676,603.545,569.676Z" transform="translate(-96.839 -558.405)" fill="#eb6520"/>
    </g>
    <g id="Group_10" data-name="Group 10" transform="translate(626.958 510.325)">
      <g id="Group_4" data-name="Group 4">
        <g id="Group_3" data-name="Group 3">
          <path id="Path_8" data-name="Path 8" d="M555.965,603.707V519.544a13.29,13.29,0,0,0-13.289-13.3H458.5a13.292,13.292,0,0,0-13.185,11.726h-.263v79.407h.161v6.33a13.3,13.3,0,0,0,13.287,13.3h84.179a13.291,13.291,0,0,0,13.289-13.3" transform="translate(-445.05 -506.243)" fill="#eb6520"/>
        </g>
      </g>
      <g id="Group_9" data-name="Group 9" transform="translate(22.531 18.887)">
        <g id="Group_8" data-name="Group 8" clip-path="url(#clip-path)">
          <g id="Group_5" data-name="Group 5" transform="translate(1.437 1.335)">
            <path id="Path_9" data-name="Path 9" d="M492.327,594.24c-10.1-4.764-17.885-11.241-23.182-19.277A50.5,50.5,0,0,1,461.278,553a62.783,62.783,0,0,1-.437-7.5l0-3.874h0V530.09a15.587,15.587,0,0,0,11.338-10.526h40.3a15.589,15.589,0,0,0,11.337,10.526v11.535h0V545.5a62.633,62.633,0,0,1-.437,7.5,50.514,50.514,0,0,1-7.87,21.968c-5.3,8.039-13.092,14.52-23.183,19.277" transform="translate(-460.839 -519.564)" fill="#eb6520"/>
          </g>
          <g id="Group_6" data-name="Group 6" transform="translate(-0.119 -0.223)">
            <path id="Path_10" data-name="Path 10" d="M492.858,596.492l-.663-.313c-10.353-4.883-18.365-11.555-23.819-19.83a52.045,52.045,0,0,1-8.112-22.637,64.322,64.322,0,0,1-.45-7.684l0-2.676,0-13.948,1.178-.294a14.019,14.019,0,0,0,10.22-9.45l.326-1.123H514.18l.326,1.123a14.03,14.03,0,0,0,10.219,9.451l1.179.293,0,16.625a64.136,64.136,0,0,1-.448,7.683,52.021,52.021,0,0,1-8.117,22.637c-5.453,8.276-13.466,14.948-23.816,19.83ZM462.928,540.6h0l0,1.557,0,3.874a60.976,60.976,0,0,0,.428,7.311,48.949,48.949,0,0,0,7.621,21.3c5.019,7.613,12.378,13.8,21.882,18.409,9.5-4.6,16.864-10.793,21.882-18.411a48.928,48.928,0,0,0,7.623-21.3,60.66,60.66,0,0,0,.427-7.309V531.795a17.168,17.168,0,0,1-10.9-10.142H473.83a17.167,17.167,0,0,1-10.9,10.142Z" transform="translate(-459.814 -518.538)" fill="#fff"/>
          </g>
          <g id="Group_7" data-name="Group 7" transform="translate(5.566 5.166)">
            <path id="Path_11" data-name="Path 11" d="M490.919,588.6c-8.492-4.332-15.1-10.025-19.657-16.941a46.875,46.875,0,0,1-7.291-20.4,59.025,59.025,0,0,1-.413-7.074l0-7.759h0v-4.959a19.711,19.711,0,0,0,10.1-9.375h34.519a19.71,19.71,0,0,0,10.1,9.375v4.959h0v7.759a59.01,59.01,0,0,1-.413,7.072,46.851,46.851,0,0,1-7.294,20.4c-4.56,6.918-11.165,12.61-19.654,16.941" transform="translate(-463.559 -522.088)" fill="#fff"/>
          </g>
        </g>
      </g>
    </g>
  </g>
</svg>
