<svg xmlns="http://www.w3.org/2000/svg" width="48.285" height="38.807" viewBox="0 0 48.285 38.807">
  <g id="Group_16171" data-name="Group 16171" transform="translate(257)">
    <path id="Path_2257" data-name="Path 2257" d="M853.749,343.162c-1.827-.033-3.73-1.326-3.73-3.133v-2.242h-3.263a1.014,1.014,0,0,1-.716-.291l-.028-.048H846a1.045,1.045,0,0,1-.292-.72V326.535a5.338,5.338,0,0,1,2.929-4.755l.611-.3-1.932-.382a1,1,0,0,1-.515-.272c-.028-.028-.057-.057-.086-.09a3.172,3.172,0,0,1-.634-2.27,4.293,4.293,0,0,1,.644-2.118,1.015,1.015,0,0,1,.672-.434l4.612-.758h.034l1.259-3.639c.009-.019.019-.048.029-.072,1.722-4.011,4.807-5.842,8.466-6.649l.806-.152a70.753,70.753,0,0,1,13.526.086l.248.038c4.193.787,8.037,2.6,9.782,6.677.01.024.024.053.029.072l1.292,3.73.167-.076a.962.962,0,0,1,.406-.014l4.612.758a1.027,1.027,0,0,1,.668.429,4.393,4.393,0,0,1,.654,2.118,3.182,3.182,0,0,1-.639,2.275c-.029.033-.053.062-.081.09a1.03,1.03,0,0,1-.525.272l-2.337.463.449.224a5.337,5.337,0,0,1,2.938,4.755v10.193a1.017,1.017,0,0,1-1.016,1.016h-.015l-.229.043h-3.052v2.485a.834.834,0,0,1-.034.243,3.492,3.492,0,0,1-3.7,2.647c-2.051-.028-4.106-.644-4.3-3.167a.435.435,0,0,1,0-.076V337.84h-23.39v2.079a1.29,1.29,0,0,1-.028.239C857.5,342.313,855.971,343.134,853.749,343.162Zm.009-2.027c1.16-.015,1.732-.253,2.051-.8l.219-.577v-1.97h-3.982v2.242A1.662,1.662,0,0,0,853.758,341.135Zm31.981,0c.868-.019,1.326-.257,1.564-.658l.153-.377v-2.313h-3.983v2.075l.129.548C883.826,340.892,884.394,341.116,885.739,341.135Zm2.5-5.375.229-.043h3.3v-9.182c0-1.769-1.154-2.79-3.472-3.777a1.028,1.028,0,0,1-.558-.6l-3.439-9.93-.458-.906c-2.561-4.331-8.766-5.108-15-5.108-6.139,0-10.827.787-13.2,5.113l-.439.9-3.443,9.935a.994.994,0,0,1-.563.6c-2.313.987-3.458,2.008-3.458,3.777v9.182h3.3l.224.043Zm-33.673-2.16a4.174,4.174,0,1,1,4.173-4.174A4.172,4.172,0,0,1,854.564,333.6Zm30.044,0a4.174,4.174,0,1,1,4.169-4.174A4.176,4.176,0,0,1,884.608,333.6Zm-30.044-2.027a2.146,2.146,0,1,0-2.146-2.146A2.146,2.146,0,0,0,854.564,331.572Zm30.044,0a2.146,2.146,0,1,0-2.151-2.146A2.15,2.15,0,0,0,884.608,331.572Zm-29.915-8.585a1.016,1.016,0,0,1-1.035-1.35l2.995-8.375c1.789-4.712,8.185-6.082,13.732-5.8,5.4.282,11.533,2.247,12.468,5.833l2.437,8.395a1.017,1.017,0,0,1-1.059,1.293A183.407,183.407,0,0,0,854.694,322.987Zm28.245-2.127-2.036-7.03c-.534-2.027-5.027-4.054-10.627-4.34-5.489-.281-10.464,1.173-11.719,4.479l-2.47,6.887,2.179-.148q1.746-.107,3.5-.176l2.838-.1-4.04-3.3a1.013,1.013,0,1,1,1.283-1.569l5.829,4.765.043.053,1.05-.014c1.164,0,2.332,0,3.5.019l2.17.048-4.04-3.3a1.015,1.015,0,0,1,1.287-1.569l5.829,4.765.171.22.181.009c.935.043,1.865.091,2.8.148Zm-35.423-.759.691-.7-.672.6Zm45.039,0-.019-.1-.672-.6Zm-3.505-.343,2.876-.558a3,3,0,0,0,.038-.63,3.205,3.205,0,0,0-.11-.653l-.033-.091-3.654-.606Zm-38.562-.11.806-2.323-3.048.5-.028.086a2.726,2.726,0,0,0-.11.658,1.906,1.906,0,0,0,.043.592Z" transform="translate(-1102.712 -304.356)" fill="#eb6520"/>
  </g>
</svg>
