<svg xmlns="http://www.w3.org/2000/svg" width="21.618" height="21.618" viewBox="0 0 21.618 21.618">
  <path id="Path_2298" data-name="Path 2298" d="M7.251,5.4a14.787,14.787,0,0,0,.54,3.111L6.351,9.954A17.805,17.805,0,0,1,5.438,5.4H7.251M19.093,19.838a15.316,15.316,0,0,0,3.123.54v1.789a18.527,18.527,0,0,1-4.564-.9l1.441-1.429M8.4,3H4.2A1.2,1.2,0,0,0,3,4.2,20.415,20.415,0,0,0,23.417,24.618a1.2,1.2,0,0,0,1.2-1.2V19.225a1.2,1.2,0,0,0-1.2-1.2,13.7,13.7,0,0,1-4.288-.685,1.008,1.008,0,0,0-.372-.06,1.23,1.23,0,0,0-.853.348L15.262,20.27a18.193,18.193,0,0,1-7.914-7.914L9.99,9.713a1.205,1.205,0,0,0,.3-1.225A13.644,13.644,0,0,1,9.605,4.2,1.2,1.2,0,0,0,8.4,3Z" transform="translate(-3 -3)" fill="#383532"/>
</svg>
