<svg id="Group_2930" data-name="Group 2930" xmlns="http://www.w3.org/2000/svg" width="55.246" height="40.703" viewBox="0 0 55.246 40.703">
  <path id="Path_2261" data-name="Path 2261" d="M995.706,485.876a4.168,4.168,0,0,1-1.841-.617l-.052-.046c-7.282-5.235-14.466-10.8-18.148-17.119l-.633-1.214h-4.715a.987.987,0,0,1,0-1.974h3.846l-.139-.334a15.645,15.645,0,0,1-.885-5.6,13.626,13.626,0,0,1,13.438-13.793,13.238,13.238,0,0,1,9.658,4.207l.062.062.916-.9a13.2,13.2,0,0,1,8.793-3.368,13.6,13.6,0,0,1,13.376,12.394l.067,1.368v.041l-.031,2.031a16.48,16.48,0,0,1-.741,3.677l-.252.654h5.173a.987.987,0,0,1,0,1.974h-6.032l-.4.787c-3.718,6.609-11.37,11.854-18.7,16.929l-.036.021a5,5,0,0,1-2.16.813A3.406,3.406,0,0,1,995.706,485.876Zm.391-1.969a2.074,2.074,0,0,0,.6-.154l.679-.36,3.949-2.762c5.693-4.042,10.733-8.064,13.618-12.63l.391-.679H1004.54a.987.987,0,0,1-.879-.54l-.925-1.826L997.953,475.7a.993.993,0,0,1-1.872-.206l-3.121-15.042-3.265,9.293a.987.987,0,0,1-1.738.237l-3.255-4.675-.859,1.167a1,1,0,0,1-.8.4h-5.781l.375.669c2.8,4.562,7.673,8.861,13.34,13.134l3.929,2.89.607.272A1.4,1.4,0,0,0,996.1,483.907Zm1.3-11.8,4.387-9.848a.986.986,0,0,1,1.779-.041l1.589,3.132h11.18l.077-.165a14.436,14.436,0,0,0,1.075-6.151v-.046a11.664,11.664,0,0,0-11.473-11.833,11.255,11.255,0,0,0-8.3,3.677,2.589,2.589,0,0,1-.458.39,1.712,1.712,0,0,1-1.666.113,2.631,2.631,0,0,1-.777-.586,11.3,11.3,0,0,0-8.228-3.595A11.666,11.666,0,0,0,975.11,459a13.894,13.894,0,0,0,1.111,5.78l.056.124h6.269l1.378-1.872a.986.986,0,0,1,1.6.021l2.941,4.222,3.8-10.82a.985.985,0,0,1,1.892.123Zm-18.93-14.636a.918.918,0,0,1-.385-.062.989.989,0,0,1-.56-1.275,11.3,11.3,0,0,1,6.027-6.479.987.987,0,1,1,.823,1.794,9.339,9.339,0,0,0-5.014,5.395A.976.976,0,0,1,978.463,457.469Z" transform="translate(-969.335 -445.183)" fill="#eb6520"/>
</svg>
