<svg xmlns="http://www.w3.org/2000/svg" xmlns:xlink="http://www.w3.org/1999/xlink" width="44" height="42.762" viewBox="0 0 44 42.762">
  <defs>
    <clipPath id="clip-path">
      <rect id="Rectangle_672" data-name="Rectangle 672" width="44" height="42.762" fill="#eb6520"/>
    </clipPath>
  </defs>
  <g id="Group_16198" data-name="Group 16198" transform="translate(0 0)">
    <g id="Group_16197" data-name="Group 16197" transform="translate(0 0)" clip-path="url(#clip-path)">
      <path id="Path_7233" data-name="Path 7233" d="M14.938,19.325,9.067,13.453l-2.15.1a.542.542,0,0,1-.468-.214L.124,5.565A.571.571,0,0,1,.171,4.8L3.56,1.415a.573.573,0,0,1,.77-.032L12.09,7.7a.584.584,0,0,1,.206.468l-.1,2.158L18.065,16.2l3.3-3.3A11.369,11.369,0,0,1,36.7.749a.572.572,0,0,1,.206.936l-6.61,6.61,1.262,4.142L35.7,13.7l6.6-6.6a.575.575,0,0,1,.809,0,.5.5,0,0,1,.135.222A11.344,11.344,0,0,1,40.672,19.4a11.365,11.365,0,0,1-9.728,3.2L40.5,32.156l.032.032a3.449,3.449,0,0,1-.032,4.825l-.532.524-.008.008-4.206,4.214a3.455,3.455,0,0,1-2.436,1,3.419,3.419,0,0,1-2.42-1l-9.538-9.538-9.387,9.506a3.459,3.459,0,0,1-1.111.77l-.024.008a3.485,3.485,0,0,1-1.3.246A3.365,3.365,0,0,1,7.1,41.741L2.234,36.885a3.448,3.448,0,0,1,0-4.856h0Zm9.792,9.49,11.141,11.2,2.872-2.872L27.587,25.927ZM35.07,40.821l-11.141-11.2L22.167,31.41l9.538,9.538H31.7a2.309,2.309,0,0,0,3.245,0ZM23.389,28.553a.556.556,0,0,1,.111-.167l3.682-3.674,2.507-2.547.016-.008.619-.627a.566.566,0,0,1,.77-.071l.024.016a10.307,10.307,0,0,0,4.658-.381,10.231,10.231,0,0,0,6.856-7.586,10.256,10.256,0,0,0-.167-4.951l-6.2,6.2a.577.577,0,0,1-.563.135l-4.769-1.452a.561.561,0,0,1-.381-.373L29.118,8.342a.566.566,0,0,1,.127-.619l6.189-6.189a10.214,10.214,0,0,0-12.9,11.434l.008.079a.551.551,0,0,1-.19.484l-3.872,3.88-2.325,2.317L3.044,32.838a2.289,2.289,0,0,0,0,3.23L7.908,40.94a2.243,2.243,0,0,0,.746.5,2.291,2.291,0,0,0,.881.167,2.319,2.319,0,0,0,.857-.159l.024-.016a2.162,2.162,0,0,0,.738-.508l9.768-9.879.032-.032.024-.024Zm5-3.444,11.165,11.22.135-.127a2.3,2.3,0,0,0,.024-3.214l-.024-.024L30.1,23.379ZM6.432,33.846l3.714,3.714,3.714-3.714-3.714-3.714Zm3.309,4.936a.575.575,0,0,0,.809,0l4.523-4.531a.565.565,0,0,0,0-.8L10.55,28.926a.561.561,0,0,0-.809,0L5.218,33.449a.565.565,0,0,0,0,.8ZM9.693,12.469l6.047,6.054,1.524-1.516-6.054-6.054a.587.587,0,0,1-.159-.428l.1-2.119L4,2.582,1.338,5.248,7.154,12.4l2.111-.1a.545.545,0,0,1,.428.167M4.321,1.375l.008.008Z" transform="translate(0.003 0.004)" fill="#eb6520" fill-rule="evenodd"/>
    </g>
  </g>
</svg>
