<svg xmlns="http://www.w3.org/2000/svg" xmlns:xlink="http://www.w3.org/1999/xlink" width="48.603" height="53.788" viewBox="0 0 48.603 53.788">
  <defs>
    <clipPath id="clip-path">
      <rect id="Rectangle_671" data-name="Rectangle 671" width="48.603" height="53.788" fill="#eb6520" stroke="#eb6520" stroke-linecap="round" stroke-linejoin="bevel" stroke-width="5"/>
    </clipPath>
  </defs>
  <g id="Group_16196" data-name="Group 16196" transform="translate(0 0)">
    <g id="Group_16195" data-name="Group 16195" transform="translate(0 0)" clip-path="url(#clip-path)">
      <g id="Path_7232" data-name="Path 7232" transform="translate(0 0.003)" fill="#eb6520" stroke-linecap="round" stroke-linejoin="bevel" fill-rule="evenodd">
        <path d="M1.184,3.536v8.492a2.356,2.356,0,0,0,2.352,2.36H39.008a2.37,2.37,0,0,0,2.352-2.36V3.536a2.318,2.318,0,0,0-.694-1.666,2.347,2.347,0,0,0-1.658-.694H3.536a2.356,2.356,0,0,0-2.352,2.36M23.379,31.283a3.545,3.545,0,0,1,1.568.915,3.49,3.49,0,0,1,1.037,2.5V50.252a3.541,3.541,0,0,1-3.528,3.536H20.088a3.541,3.541,0,0,1-3.536-3.536V34.7a3.552,3.552,0,0,1,1.037-2.5l.008-.008a3.607,3.607,0,0,1,1.568-.906V21.917a.584.584,0,0,1,.588-.58H44.4V9.995H42.536v2.033a3.541,3.541,0,0,1-3.528,3.536H3.536A3.541,3.541,0,0,1,0,12.028V3.536a3.552,3.552,0,0,1,1.037-2.5h.008A3.485,3.485,0,0,1,3.536,0H39.008A3.485,3.485,0,0,1,41.5,1.037a3.552,3.552,0,0,1,1.037,2.5V5.569h5.479a.591.591,0,0,1,.588.588v18.8a.585.585,0,0,1-.588.588H23.379Zm-3.291,1.053a2.37,2.37,0,0,0-2.36,2.36V50.252a2.37,2.37,0,0,0,2.36,2.36h2.368a2.313,2.313,0,0,0,1.658-.694h.008a2.344,2.344,0,0,0,.686-1.666V34.7a2.318,2.318,0,0,0-.694-1.666,2.347,2.347,0,0,0-1.658-.694Zm.253-1.176V22.513H44.985a.592.592,0,0,0,.588-.6V9.407a.585.585,0,0,0-.588-.588h-2.45V6.745h4.891V24.367H22.783a.591.591,0,0,0-.588.588v6.206Z" stroke="none"/>
        <path d="M 3.535789489746094 -3.814697265625e-06 L 39.00800323486328 -3.814697265625e-06 C 39.97973251342773 -3.814697265625e-06 40.86163711547852 0.3919525146484375 41.49855804443359 1.037055969238281 C 42.135498046875 1.682151794433594 42.53562545776367 2.564056396484375 42.53562545776367 3.535785675048828 L 42.53562545776367 5.569068908691406 L 48.01487350463867 5.569068908691406 C 48.34149551391602 5.569068908691406 48.60280227661133 5.838539123535156 48.60280227661133 6.157009124755859 L 48.60280227661133 24.95466804504395 C 48.60280227661133 25.28130340576172 48.34149551391602 25.54261016845703 48.01487350463867 25.54261016845703 L 23.3786735534668 25.54261016845703 L 23.3786735534668 31.28316307067871 C 23.97476768493652 31.44646835327148 24.51370811462402 31.76493835449219 24.94649696350098 32.19772720336914 C 25.59160232543945 32.83465576171875 25.98355674743652 33.71656036376953 25.98355674743652 34.69645690917969 L 25.98355674743652 50.25229263305664 C 25.98355674743652 51.22402191162109 25.59160232543945 52.10592651367188 24.94649696350098 52.75103378295898 C 24.30956840515137 53.38797378540039 23.42766189575195 53.78809356689453 22.4559326171875 53.78809356689453 L 20.08785057067871 53.78809356689453 C 19.11612129211426 53.78809356689453 18.22604942321777 53.38797378540039 17.58912086486816 52.75103378295898 C 16.95219039916992 52.11410522460938 16.55206298828125 51.22402191162109 16.55206298828125 50.25229263305664 L 16.55206298828125 34.69645690917969 C 16.55206298828125 33.72472763061523 16.95219039916992 32.84281921386719 17.58912086486816 32.19772720336914 L 17.59728622436523 32.18955993652344 C 18.03007316589355 31.76493835449219 18.56901550292969 31.44646835327148 19.16512107849121 31.28316307067871 L 19.16512107849121 21.9169979095459 C 19.16512107849121 21.59852600097656 19.42642593383789 21.33722305297852 19.75304985046387 21.33722305297852 L 44.39741516113281 21.33722305297852 L 44.39741516113281 9.994926452636719 L 42.53562545776367 9.994926452636719 L 42.53562545776367 12.02822113037109 C 42.53562545776367 12.99993896484375 42.135498046875 13.88184356689453 41.49855804443359 14.52695083618164 C 40.86163711547852 15.16387939453125 39.97973251342773 15.56399917602539 39.00800323486328 15.56399917602539 L 3.535789489746094 15.56399917602539 C 2.564060211181641 15.56399917602539 1.682155609130859 15.16387939453125 1.03704833984375 14.52695083618164 C 0.4001197814941406 13.88184356689453 3.814697265625e-06 12.99993896484375 3.814697265625e-06 12.02822113037109 L 3.814697265625e-06 3.535785675048828 C 3.814697265625e-06 2.564056396484375 0.4001197814941406 1.682151794433594 1.03704833984375 1.037055969238281 L 1.04522705078125 1.037055969238281 C 1.682155609130859 0.3919525146484375 2.564060211181641 -3.814697265625e-06 3.535789489746094 -3.814697265625e-06 Z M 39.00800323486328 14.38812637329102 C 39.65309906005859 14.38812637329102 40.24103927612305 14.11865615844727 40.6656608581543 13.69403457641602 C 41.09843826293945 13.2694206237793 41.35974502563477 12.67331695556641 41.35974502563477 12.02822113037109 L 41.35974502563477 3.535785675048828 C 41.35974502563477 2.882526397705078 41.09843826293945 2.294586181640625 40.6656608581543 1.869960784912109 C 40.24103927612305 1.445350646972656 39.65309906005859 1.175868988037109 39.00800323486328 1.175868988037109 L 3.535789489746094 1.175868988037109 C 2.882522583007812 1.175868988037109 2.294589996337891 1.445350646972656 1.869968414306641 1.869960784912109 C 1.445343017578125 2.294586181640625 1.184040069580078 2.882526397705078 1.184040069580078 3.535785675048828 L 1.184040069580078 12.02822113037109 C 1.184040069580078 12.67331695556641 1.445343017578125 13.2694206237793 1.869968414306641 13.69403457641602 C 2.294589996337891 14.11865615844727 2.882522583007812 14.38812637329102 3.535789489746094 14.38812637329102 L 39.00800323486328 14.38812637329102 Z M 47.42693328857422 24.36672782897949 L 47.42693328857422 6.744937896728516 L 42.53562545776367 6.744937896728516 L 42.53562545776367 8.819057464599609 L 44.98535537719727 8.819057464599609 C 45.31199264526367 8.819057464599609 45.57329559326172 9.080364227294922 45.57329559326172 9.406997680664062 L 45.57329559326172 21.9169979095459 C 45.57329559326172 22.24362182617188 45.31199264526367 22.51309204101562 44.98535537719727 22.51309204101562 L 20.34099197387695 22.51309204101562 L 20.34099197387695 31.16066932678223 L 22.19462585449219 31.16066932678223 L 22.19462585449219 24.95466804504395 C 22.19462585449219 24.62803268432617 22.46409797668457 24.36672782897949 22.78256797790527 24.36672782897949 L 47.42693328857422 24.36672782897949 Z M 24.12175559997559 51.91811370849609 C 24.54637908935547 51.49350357055664 24.80768585205078 50.90556335449219 24.80768585205078 50.25229263305664 L 24.80768585205078 34.69645690917969 C 24.80768585205078 34.04319763183594 24.54637908935547 33.45525741577148 24.11359214782715 33.03064727783203 C 23.68896865844727 32.60602188110352 23.10102653503418 32.33654022216797 22.4559326171875 32.33654022216797 L 20.08785057067871 32.33654022216797 C 19.43459129333496 32.33654022216797 18.84664916992188 32.60602188110352 18.42203903198242 33.03064727783203 C 17.99741554260254 33.45525741577148 17.72794342041016 34.04319763183594 17.72794342041016 34.69645690917969 L 17.72794342041016 50.25229263305664 C 17.72794342041016 50.90556335449219 17.99741554260254 51.49350357055664 18.42203903198242 51.91811370849609 C 18.84664916992188 52.34273910522461 19.44275665283203 52.61220932006836 20.08785057067871 52.61220932006836 L 22.4559326171875 52.61220932006836 C 23.10102653503418 52.61220932006836 23.68896865844727 52.35090255737305 24.11359214782715 51.91811370849609 L 24.12175559997559 51.91811370849609 Z" stroke="none" fill="#eb6520"/>
      </g>
    </g>
  </g>
</svg>
