<svg id="Group_16184" data-name="Group 16184" xmlns="http://www.w3.org/2000/svg" xmlns:xlink="http://www.w3.org/1999/xlink" width="43.287" height="47.222" viewBox="0 0 43.287 47.222">
  <defs>
    <clipPath id="clip-path">
      <rect id="Rectangle_665" data-name="Rectangle 665" width="43.287" height="47.222" fill="none" stroke="#eb6520" stroke-width="1"/>
    </clipPath>
  </defs>
  <g id="Group_16183" data-name="Group 16183" clip-path="url(#clip-path)">
    <path id="Path_7226" data-name="Path 7226" d="M42.4,31.923a2.061,2.061,0,0,0-2.264.578c-1.05-.44-2.562-1.092-3.193-1.457-.7-.4-2.236-1.561-3.128-2.243a12.206,12.206,0,0,0,.774-3.177c.892-.1,2.2-.241,2.774-.241.522,0,1.634.113,2.5.21a1.926,1.926,0,0,0,1.68,1.2,2.255,2.255,0,0,0,1.968-2.459,2.255,2.255,0,0,0-1.968-2.459,1.926,1.926,0,0,0-1.68,1.2c-.868.1-1.98.21-2.5.21-.578,0-1.882-.138-2.774-.241a12.2,12.2,0,0,0-.774-3.177c.892-.682,2.431-1.841,3.128-2.243.631-.364,2.143-1.016,3.193-1.457a2.061,2.061,0,0,0,2.264.578c.941-.544.933-2.319-.017-3.966s-2.485-2.542-3.426-2a2.061,2.061,0,0,0-.631,2.249c-.906.689-2.227,1.673-2.858,2.037-.7.4-2.472,1.158-3.508,1.588A12.355,12.355,0,0,0,29.6,14.388c.357-.824.889-2.023,1.179-2.525.261-.452.914-1.359,1.433-2.061a1.927,1.927,0,0,0,1.875-.857,2.255,2.255,0,0,0-1.146-2.934,2.255,2.255,0,0,0-3.114.474,1.926,1.926,0,0,0,.2,2.052c-.349.8-.808,1.819-1.069,2.271-.289.5-1.061,1.561-1.6,2.282a12.213,12.213,0,0,0-3.139-.92c-.145-1.113-.378-3.024-.378-3.829,0-.728.191-2.364.335-3.494C25.151,4.5,25.8,3.884,25.8,3.178c0-1.087-1.542-1.968-3.443-1.968s-3.443.881-3.443,1.968c0,.707.654,1.324,1.632,1.671.144,1.129.335,2.766.335,3.494,0,.8-.233,2.716-.378,3.829a12.21,12.21,0,0,0-3.138.92c-.535-.721-1.307-1.781-1.6-2.282-.261-.452-.72-1.471-1.069-2.271a1.926,1.926,0,0,0,.2-2.052,2.255,2.255,0,0,0-3.114-.474,2.256,2.256,0,0,0-1.146,2.934,1.927,1.927,0,0,0,1.875.857c.519.7,1.172,1.609,1.433,2.061.289.5.822,1.7,1.179,2.525a12.367,12.367,0,0,0-2.363,2.258c-1.036-.431-2.811-1.186-3.508-1.588C8.624,14.694,7.3,13.71,6.4,13.021a2.062,2.062,0,0,0-.631-2.249c-.941-.544-2.475.351-3.425,2s-.959,3.423-.018,3.966a2.061,2.061,0,0,0,2.264-.578c1.05.44,2.563,1.093,3.193,1.457.7.4,2.237,1.561,3.128,2.243a12.219,12.219,0,0,0-.774,3.177c-.892.1-2.2.241-2.774.241-.522,0-1.634-.112-2.5-.21a1.927,1.927,0,0,0-1.68-1.2A2.255,2.255,0,0,0,1.21,24.329a2.255,2.255,0,0,0,1.968,2.459,1.926,1.926,0,0,0,1.68-1.2c.868-.1,1.979-.21,2.5-.21.578,0,1.882.138,2.774.241a12.221,12.221,0,0,0,.774,3.177c-.891.682-2.431,1.841-3.128,2.243-.631.364-2.143,1.017-3.193,1.457a2.061,2.061,0,0,0-2.264-.578c-.941.544-.933,2.319.018,3.966s2.484,2.542,3.425,2A2.062,2.062,0,0,0,6.4,35.638c.906-.689,2.227-1.673,2.858-2.038.7-.4,2.472-1.157,3.508-1.588a12.365,12.365,0,0,0,2.363,2.258c-.357.824-.889,2.023-1.179,2.525-.261.452-.914,1.359-1.433,2.061a1.926,1.926,0,0,0-1.875.857,2.256,2.256,0,0,0,1.146,2.934,2.255,2.255,0,0,0,3.114-.474,1.926,1.926,0,0,0-.2-2.052c.349-.8.808-1.82,1.069-2.272.289-.5,1.061-1.561,1.6-2.282a12.21,12.21,0,0,0,3.138.92c.145,1.113.378,3.024.378,3.828,0,.728-.191,2.365-.335,3.494-.979.347-1.632.965-1.632,1.671,0,1.087,1.542,1.968,3.443,1.968s3.443-.881,3.443-1.968c0-.707-.654-1.324-1.633-1.671-.144-1.129-.335-2.765-.335-3.494,0-.8.233-2.715.378-3.828a12.213,12.213,0,0,0,3.139-.92c.535.721,1.307,1.781,1.6,2.282.261.452.719,1.471,1.069,2.272a1.926,1.926,0,0,0-.2,2.052,2.256,2.256,0,0,0,3.114.474,2.255,2.255,0,0,0,1.146-2.934,1.926,1.926,0,0,0-1.875-.857c-.518-.7-1.172-1.609-1.433-2.061-.289-.5-.822-1.7-1.179-2.525a12.353,12.353,0,0,0,2.363-2.258C33,32.443,34.771,33.2,35.468,33.6c.631.364,1.952,1.348,2.858,2.038a2.061,2.061,0,0,0,.631,2.249c.941.543,2.475-.352,3.426-2S43.342,32.466,42.4,31.923Z" transform="translate(-0.718 -0.718)" fill="none" stroke="#eb6520" stroke-miterlimit="10" stroke-width="1"/>
    <circle id="Ellipse_26" data-name="Ellipse 26" cx="2.459" cy="2.459" r="2.459" transform="translate(19.676 15.249)" fill="none" stroke="#eb6520" stroke-miterlimit="10" stroke-width="1"/>
    <circle id="Ellipse_27" data-name="Ellipse 27" cx="2.459" cy="2.459" r="2.459" transform="translate(13.281 22.627)" fill="none" stroke="#eb6520" stroke-miterlimit="10" stroke-width="1"/>
    <circle id="Ellipse_28" data-name="Ellipse 28" cx="2.459" cy="2.459" r="2.459" transform="translate(24.103 24.595)" fill="none" stroke="#eb6520" stroke-miterlimit="10" stroke-width="1"/>
    <circle id="Ellipse_29" data-name="Ellipse 29" cx="0.984" cy="0.984" r="0.984" transform="translate(27.054 19.184)" fill="none" stroke="#eb6520" stroke-miterlimit="10" stroke-width="1"/>
    <circle id="Ellipse_30" data-name="Ellipse 30" cx="0.984" cy="0.984" r="0.984" transform="translate(23.611 21.151)" fill="none" stroke="#eb6520" stroke-miterlimit="10" stroke-width="1"/>
    <circle id="Ellipse_31" data-name="Ellipse 31" cx="0.984" cy="0.984" r="0.984" transform="translate(15.741 18.692)" fill="none" stroke="#eb6520" stroke-miterlimit="10" stroke-width="1"/>
    <circle id="Ellipse_32" data-name="Ellipse 32" cx="0.984" cy="0.984" r="0.984" transform="translate(21.643 30.497)" fill="none" stroke="#eb6520" stroke-miterlimit="10" stroke-width="1"/>
    <circle id="Ellipse_33" data-name="Ellipse 33" cx="0.984" cy="0.984" r="0.984" transform="translate(20.168 26.07)" fill="none" stroke="#eb6520" stroke-miterlimit="10" stroke-width="1"/>
  </g>
</svg>
