<svg id="Group_16202" data-name="Group 16202" xmlns="http://www.w3.org/2000/svg" xmlns:xlink="http://www.w3.org/1999/xlink" width="67.369" height="38.428" viewBox="0 0 67.369 38.428">
  <defs>
    <clipPath id="clip-path">
      <rect id="Rectangle_674" data-name="Rectangle 674" width="67.369" height="38.428" fill="none" stroke="#eb6520" stroke-width="2"/>
    </clipPath>
  </defs>
  <g id="Group_16201" data-name="Group 16201" transform="translate(0 0)" clip-path="url(#clip-path)">
    <path id="Path_7235" data-name="Path 7235" d="M1.5,22.939V14.405L4.307,7.5H63.255c-1.319,4.66-2.358,7.775-5.614,11.228" transform="translate(2.711 13.553)" fill="none" stroke="#eb6520" stroke-linejoin="round" stroke-width="2"/>
    <path id="Path_7236" data-name="Path 7236" d="M48.412,14.728H3.5l2.276-9.1A2.8,2.8,0,0,1,8.5,3.5H35.781a8.427,8.427,0,0,1,6.737,3.368Z" transform="translate(6.325 6.325)" fill="none" stroke="#eb6520" stroke-linejoin="round" stroke-width="2"/>
    <path id="Path_7237" data-name="Path 7237" d="M20.535,8.921H6.5V.5H17.728Z" transform="translate(11.746 0.904)" fill="none" stroke="#eb6520" stroke-linejoin="round" stroke-width="2"/>
    <line id="Line_24" data-name="Line 24" x2="5.614" transform="translate(12.632 1.404)" fill="none" stroke="#eb6520" stroke-linecap="round" stroke-linejoin="round" stroke-width="2"/>
    <path id="Path_7238" data-name="Path 7238" d="M65.062,15.684c-4.034,0-4.034-3.874-8.067-3.874s-4.034,3.874-8.067,3.874S44.9,11.81,40.871,11.81s-4.034,3.874-8.067,3.874S28.77,11.81,24.736,11.81s-4.034,3.874-8.07,3.874S12.624,11.81,8.584,11.81,4.542,15.684.5,15.684" transform="translate(0.904 21.341)" fill="none" stroke="#eb6520" stroke-linecap="round" stroke-linejoin="round" stroke-width="2"/>
    <path id="Path_7239" data-name="Path 7239" d="M8.807,6.4A1.4,1.4,0,1,1,7.4,5a1.4,1.4,0,0,1,1.4,1.4" transform="translate(10.842 9.035)" fill="none" stroke="#eb6520" stroke-width="1"/>
    <path id="Path_7240" data-name="Path 7240" d="M11.807,6.4A1.4,1.4,0,1,1,10.4,5a1.4,1.4,0,0,1,1.4,1.4" transform="translate(16.263 9.035)" fill="none" stroke="#eb6520" stroke-width="1"/>
    <path id="Path_7241" data-name="Path 7241" d="M14.807,6.4A1.4,1.4,0,1,1,13.4,5a1.4,1.4,0,0,1,1.4,1.4" transform="translate(21.684 9.035)" fill="none" stroke="#eb6520" stroke-width="1"/>
  </g>
</svg>
