<svg xmlns="http://www.w3.org/2000/svg" width="30.987" height="24.904" viewBox="0 0 30.987 24.904">
  <path id="Path_2257" data-name="Path 2257" d="M850.87,329.26a2.306,2.306,0,0,1-2.394-2.011V325.81h-2.094a.651.651,0,0,1-.459-.187l-.018-.03H845.9a.671.671,0,0,1-.187-.462V318.59a3.426,3.426,0,0,1,1.88-3.052l.392-.2-1.24-.245a.644.644,0,0,1-.331-.174c-.018-.018-.036-.037-.055-.058a2.036,2.036,0,0,1-.407-1.457,2.755,2.755,0,0,1,.414-1.359.651.651,0,0,1,.431-.279l2.96-.486h.021l.808-2.336c.006-.012.012-.03.018-.046a7.11,7.11,0,0,1,5.433-4.267l.517-.1a45.408,45.408,0,0,1,8.681.055l.159.025c2.691.505,5.158,1.671,6.278,4.285a.485.485,0,0,1,.019.046l.829,2.393.107-.049a.618.618,0,0,1,.26-.009l2.96.486a.659.659,0,0,1,.428.276,2.819,2.819,0,0,1,.42,1.359,2.042,2.042,0,0,1-.41,1.46c-.019.021-.034.04-.052.058a.661.661,0,0,1-.337.174l-1.5.3.288.144a3.425,3.425,0,0,1,1.885,3.052v6.541a.652.652,0,0,1-.652.652h-.009l-.147.028H873.8V327.4a.533.533,0,0,1-.022.156,2.241,2.241,0,0,1-2.375,1.7c-1.316-.018-2.635-.413-2.758-2.032a.288.288,0,0,1,0-.049v-1.334H853.634v1.334a.831.831,0,0,1-.018.153A2.48,2.48,0,0,1,850.87,329.26Zm.006-1.3c.744-.009,1.111-.162,1.316-.514l.141-.37V325.81h-2.556v1.439A1.067,1.067,0,0,0,850.876,327.959Zm20.523,0c.557-.012.851-.165,1-.422l.1-.242V325.81h-2.556v1.332l.083.352C870.172,327.8,870.536,327.947,871.4,327.959Zm1.6-3.45.147-.027h2.118V318.59c0-1.135-.741-1.791-2.228-2.424a.66.66,0,0,1-.358-.383l-2.207-6.373-.294-.582c-1.644-2.779-5.626-3.278-9.626-3.278-3.939,0-6.948.505-8.469,3.281l-.282.575-2.21,6.376a.637.637,0,0,1-.361.383c-1.485.633-2.219,1.289-2.219,2.424v5.892h2.115l.144.027Zm-21.61-1.386a2.678,2.678,0,1,1,2.678-2.678A2.677,2.677,0,0,1,851.393,323.123Zm19.281,0a2.678,2.678,0,1,1,2.675-2.678A2.68,2.68,0,0,1,870.674,323.123Zm-19.281-1.3a1.377,1.377,0,1,0-1.377-1.378A1.378,1.378,0,0,0,851.393,321.822Zm19.281,0a1.377,1.377,0,1,0-1.38-1.378A1.38,1.38,0,0,0,870.674,321.822Zm-19.2-5.51a.652.652,0,0,1-.664-.866l1.922-5.375c1.148-3.024,5.253-3.9,8.812-3.719,3.465.181,7.4,1.442,8,3.743l1.564,5.387a.653.653,0,0,1-.679.83A117.686,117.686,0,0,0,851.476,316.312Zm18.126-1.365-1.307-4.512c-.343-1.3-3.226-2.6-6.82-2.785-3.523-.18-6.715.753-7.521,2.874l-1.585,4.42,1.4-.1q1.121-.069,2.244-.113l1.822-.061-2.593-2.118a.65.65,0,1,1,.823-1.007l3.74,3.058.028.034.673-.009c.747,0,1.5,0,2.244.012l1.393.031-2.592-2.118a.651.651,0,0,1,.826-1.007l3.74,3.058.11.141.116.006c.6.027,1.2.058,1.8.095Zm-22.733-.487.444-.447-.432.386Zm28.9,0-.012-.061-.432-.386Zm-2.25-.22,1.846-.358a1.924,1.924,0,0,0,.025-.4,2.059,2.059,0,0,0-.071-.419L875.3,313l-2.345-.389Zm-24.747-.071.517-1.491-1.956.321-.018.055a1.753,1.753,0,0,0-.071.422,1.227,1.227,0,0,0,.027.38Z" transform="translate(-845.712 -304.356)" fill="#eb6520"/>
</svg>
