<svg xmlns="http://www.w3.org/2000/svg" width="28.004" height="27.999" viewBox="0 0 28.004 27.999">
  <g id="Group_2929" data-name="Group 2929" transform="translate(0 0)" style="isolation: isolate">
    <path id="Path_2259" data-name="Path 2259" d="M819.556,455.936a.566.566,0,0,1-.671-.247l-6.523-11-6.307,5.51.281,2.909a.561.561,0,0,1-.23.511l-1.977,1.449a.565.565,0,0,1-.823-.174l-.865-1.477-.152.084a6.077,6.077,0,0,1-1.85.6l-.045,0-.553.031-.076.034a.567.567,0,0,1-.32-.07l-.048-.045-.031-.011-.082-.1-.076-.073v-.023l-.039-.047a.563.563,0,0,1-.036-.318l.025-.051.028-.531c0-.017,0-.034.006-.048a5.56,5.56,0,0,1,.323-1.213l.385-.775-1.5-.879a.565.565,0,0,1-.168-.823l1.452-1.971a.565.565,0,0,1,.508-.228l2.909.284,5.518-6.3-10.983-6.549a.563.563,0,0,1-.1-.893l2.224-2.1a.569.569,0,0,1,.534-.138l13.366,3.611,4.232-4c2.367-2.238,4.423-3.241,6.172-2.8a.636.636,0,0,1,.062.023l.472.177.115.039.039.031.11.056.028.048.062.045a.534.534,0,0,1,.112.25l.177.469c.008.023.014.045.02.064.441,1.75-.57,3.8-2.8,6.167l-4.018,4.215,3.58,13.378a.57.57,0,0,1-.137.536l-2.109,2.218A.573.573,0,0,1,819.556,455.936Zm-.082-1.463,1.379-1.452-3.58-13.378a.561.561,0,0,1,.135-.534l4.237-4.448c1.935-2.047,2.637-3.564,2.589-4.664l-.059-.433-.112-.289-.292-.115-.427-.059c-1.1-.051-2.623.646-4.676,2.583l-4.457,4.224a.561.561,0,0,1-.536.135l-13.367-3.608-1.452,1.376,10.924,6.512a.56.56,0,0,1,.132.854l-6.155,7.023a.548.548,0,0,1-.477.188l-2.878-.278-.893,1.21,1.412.826a.567.567,0,0,1,.2.778,7.274,7.274,0,0,0-.55,1.112l-.253.935.941-.247a7.323,7.323,0,0,0,1.107-.548.563.563,0,0,1,.778.2l.823,1.416,1.219-.893-.275-2.878a.555.555,0,0,1,.188-.477l7.034-6.144a.565.565,0,0,1,.857.135Zm.3-1.334a.562.562,0,0,1-.657-.275l-5.451-10.19a.562.562,0,1,1,.992-.531l5.453,10.191a.558.558,0,0,1-.23.761A.5.5,0,0,1,819.773,453.139Zm-9.433-13.858a.564.564,0,0,1-.43-.042l-9.755-5.192a.562.562,0,1,1,.528-.991l9.758,5.187a.565.565,0,0,1-.1,1.039Z" transform="translate(-797.363 -427.968)" fill="#eb6520"/>
  </g>
</svg>
