<svg xmlns="http://www.w3.org/2000/svg" width="30.754" height="27.999" viewBox="0 0 30.754 27.999">
  <g id="Group_2931" data-name="Group 2931" transform="translate(0 0)" style="isolation: isolate">
    <path id="Path_2263" data-name="Path 2263" d="M1030.7,321.246a.686.686,0,1,1,0-1.371h21.552a.686.686,0,1,1,0,1.371Zm.591-2.928a.688.688,0,0,1-.688-.689V304.757l-.255.195q-1.722,1.26-3.529,2.4a.661.661,0,0,1-.255.094.68.68,0,0,1-.692-.311.688.688,0,0,1,.214-.95,62.3,62.3,0,0,0,14.457-12.7.69.69,0,0,1,1.047,0,59,59,0,0,0,4.7,4.9l.915.812v-3.654a.687.687,0,0,1,1.374,0v4.406a.67.67,0,0,1-.054.267l-.053.076,1.428,1.157a57.327,57.327,0,0,0,6.274,4.239.686.686,0,1,1-.692,1.186c-.686-.4-1.349-.805-2-1.214l-1.488-.994v12.967a.69.69,0,0,1-.686.689Zm6.089-1.374-.025-.123v-7.485a1.688,1.688,0,0,1,1.682-1.692h4.642a1.688,1.688,0,0,1,1.682,1.692v7.485l-.025.123h5.29l0-13.246-.824-.6a57.457,57.457,0,0,1-7.736-7.01l-.991-1.113-1.138,1.3a64.959,64.959,0,0,1-7.884,7.381l-.126.094v0a.693.693,0,0,1,.057.267v12.922Zm6.63,0-.022-.123v-7.485a.312.312,0,0,0-.308-.314h-4.642a.309.309,0,0,0-.3.314v7.485l-.028.123Zm-8.957-12.658a.689.689,0,0,1-.4-1.255,24.7,24.7,0,0,0,4.4-3.884.688.688,0,1,1,1.025.919,26.277,26.277,0,0,1-4.636,4.1A.709.709,0,0,1,1035.052,304.285Z" transform="translate(-1025.765 -293.247)" fill="#eb6520"/>
  </g>
</svg>
