<svg xmlns="http://www.w3.org/2000/svg" width="38.147" height="28.105" viewBox="0 0 38.147 28.105">
  <g id="Group_2930" data-name="Group 2930" transform="translate(0 0)" style="isolation: isolate">
    <path id="Path_2261" data-name="Path 2261" d="M987.544,473.281a2.88,2.88,0,0,1-1.271-.426l-.036-.032c-5.028-3.614-9.988-7.46-12.531-11.82l-.437-.838h-3.256a.682.682,0,0,1,0-1.363h2.656l-.1-.231a10.8,10.8,0,0,1-.611-3.863,9.409,9.409,0,0,1,9.279-9.524,9.14,9.14,0,0,1,6.668,2.9l.043.043.632-.622a9.114,9.114,0,0,1,6.072-2.326,9.389,9.389,0,0,1,9.236,8.558l.046.944v.028l-.021,1.4a11.38,11.38,0,0,1-.512,2.539l-.174.451h3.572a.682.682,0,0,1,0,1.363h-4.165l-.277.543c-2.568,4.563-7.851,8.185-12.911,11.689l-.025.014a3.452,3.452,0,0,1-1.491.561A2.365,2.365,0,0,1,987.544,473.281Zm.27-1.36a1.43,1.43,0,0,0,.415-.107l.469-.249,2.727-1.907c3.931-2.791,7.411-5.568,9.4-8.721l.27-.469h-7.454a.681.681,0,0,1-.607-.373l-.639-1.261-3.3,7.421a.686.686,0,0,1-1.293-.142l-2.155-10.386-2.255,6.417a.681.681,0,0,1-1.2.164l-2.248-3.228-.593.806a.688.688,0,0,1-.55.277H974.81l.259.462c1.935,3.15,5.3,6.118,9.211,9.069l2.713,2,.419.188A.969.969,0,0,0,987.814,471.921Zm.895-8.149,3.029-6.8a.68.68,0,0,1,1.228-.028l1.1,2.163h7.719l.053-.114a9.967,9.967,0,0,0,.742-4.247v-.032a8.054,8.054,0,0,0-7.922-8.17,7.771,7.771,0,0,0-5.731,2.539,1.783,1.783,0,0,1-.316.27,1.182,1.182,0,0,1-1.15.078,1.818,1.818,0,0,1-.536-.4,7.8,7.8,0,0,0-5.681-2.482,8.056,8.056,0,0,0-7.918,8.181,9.6,9.6,0,0,0,.767,3.991l.039.085h4.329l.952-1.292a.681.681,0,0,1,1.108.014l2.031,2.915,2.624-7.471a.68.68,0,0,1,1.307.085Zm-13.071-10.106a.636.636,0,0,1-.266-.043.683.683,0,0,1-.387-.88,7.805,7.805,0,0,1,4.161-4.474.682.682,0,1,1,.568,1.239,6.447,6.447,0,0,0-3.462,3.725A.675.675,0,0,1,975.638,453.666Z" transform="translate(-969.335 -445.183)" fill="#eb6520"/>
  </g>
</svg>
