<svg xmlns="http://www.w3.org/2000/svg" width="31.19" height="29.443" viewBox="0 0 31.19 29.443">
  <g id="Group_3168" data-name="Group 3168" transform="translate(0 0)" style="isolation: isolate">
    <g id="Group_3167" data-name="Group 3167">
      <path id="Path_2282" data-name="Path 2282" d="M1451.544,589.448a3.937,3.937,0,0,1-3.572-.245,1.973,1.973,0,0,0-1.881,2.573c.327,1.4,2.933,3.054,3.044,3.124a.276.276,0,0,0,.294,0c.111-.07,2.716-1.72,3.042-3.124a1.973,1.973,0,0,0-.928-2.328Z" transform="translate(-1433.929 -584.469)" fill="#eb6520"/>
      <g id="Group_2935" data-name="Group 2935">
        <path id="Path_2283" data-name="Path 2283" d="M1391.521,571.111c2.221,0,3.6-2.772,2.5-4.943.782-1.058.346-3.22-.35-2.882-2.028.989-2.9.039-4.08.574a2.857,2.857,0,0,0-1.461,1.757,2.962,2.962,0,0,0,.526,2.463A3.06,3.06,0,0,0,1391.521,571.111Zm0-.73c-2.02,0-2.779-2.985-1.586-4.355a3.007,3.007,0,0,0,3.514.645C1394.156,568.35,1393.127,570.381,1391.521,570.381Zm-1.632-5.856c.824-.373,1.721.391,3.728-.418.672,2.42-2.051,2.783-3.387,1.162a.365.365,0,0,0-.517-.047,3.042,3.042,0,0,0-.921,1.365A2.012,2.012,0,0,1,1389.889,564.526Z" transform="translate(-1386.542 -563.251)" fill="#eb6520"/>
        <path id="Path_2284" data-name="Path 2284" d="M1410.114,615.415V608.9a3.914,3.914,0,0,0-2.046-3.41.376.376,0,0,0-.622.356,1.529,1.529,0,0,1-3.017.01,2.759,2.759,0,0,0-.166-.362c-.234-.223-.475-.031-.76.12a3.888,3.888,0,0,0-2.057,3.435v.43a3.1,3.1,0,0,1-.9,2.191l-1.731,1.755-2.429,2.431a.349.349,0,0,0-.046.056l-.012.007a1.388,1.388,0,0,1-.17.107,2.019,2.019,0,0,1-.454.187h-1.039a2.037,2.037,0,0,1-.458-.188,1.38,1.38,0,0,1-.167-.105l-.012-.007a.372.372,0,0,0-.046-.056l-2.594-2.6a.7.7,0,0,0-.108-.091c-.088-.108-.173-.208-.255-.3-.823-.969-1.235-1.456-1.235-4.525,0-2.364-2.606-3.48-3.052-3.139a3.084,3.084,0,0,1-3.856,0,.374.374,0,0,0-.3-.068,3.365,3.365,0,0,0-2.749,3.207v7.342c0,.427.051.994.491.994h1.187v7.776a1.346,1.346,0,0,0-.419,1.206.928.928,0,0,0,.927.927h5.589a.928.928,0,0,0,.927-.927v-.31a1.161,1.161,0,0,0-.419-.9v-11.4a6.026,6.026,0,0,0,1.33,1.408c.126.11.259.224.4.347l0,0,2.592,2.592c.009.009.018.015.028.023l0,.008a3.536,3.536,0,0,1,.509,1.828v1.832a.361.361,0,0,0,.014.1v3.875a1.054,1.054,0,0,0,.563,1.865h3.253a1.054,1.054,0,0,0,.562-1.865v-3.875a.357.357,0,0,0,.015-.1V619.26a3.537,3.537,0,0,1,.5-1.814.382.382,0,0,0,.053-.044l.843-.843a.356.356,0,0,0,.087-.063l3.578-3.626a4.19,4.19,0,0,0,.993-1.71v0a8.994,8.994,0,0,1-.018,1,13.634,13.634,0,0,0-2.422,6.287.361.361,0,0,0,.177.372,9.632,9.632,0,0,0,2.313,1.093l.309,4.9c-1.2.389-1.322,2.12-.2,2.12h4.651a.776.776,0,0,0,.775-.775,1.415,1.415,0,0,0-.938-1.33l.311-4.923a9.75,9.75,0,0,0,2.27-1.08.365.365,0,0,0,.179-.372,17.051,17.051,0,0,0-.723-3.032Zm-.73-6.515v4.852a15.827,15.827,0,0,0-.971-1.59,9.562,9.562,0,0,1,.226-2.864c.029-.082.058-.164.089-.244l.066-.182a2.381,2.381,0,0,0,.15-1.25,2.732,2.732,0,0,0-.167-.565A3.143,3.143,0,0,1,1409.384,608.9Zm-9.889,4.876a.365.365,0,1,1,.516.516l-2.337,2.337-.516-.516.241-.241a.311.311,0,0,0,.086-.062l1.791-1.813Zm-2.846,5.484v1.467H1393.7V619.26a4.266,4.266,0,0,0-.54-2.072l.587-.587c.032.02.065.04.1.06a2.687,2.687,0,0,0,2.66,0c.038-.021.072-.041.105-.062l.578.578A4.264,4.264,0,0,0,1396.649,619.26Zm-15.761-3.315a.306.306,0,0,1-.329-.264V615h.949v.684a2.515,2.515,0,0,1-.013.264Zm6.716,9.908c-5.964,0-5.786.076-5.786-.2,0-.015,0-.321,0-.336a.441.441,0,0,1,.44-.416h2.185v.055a.365.365,0,0,0,.365.365.37.37,0,0,0,.365-.42h2.185a.442.442,0,0,1,.442.442C1387.8,625.585,1387.845,625.853,1387.6,625.853Zm-2.429-1.678v-7.027a.365.365,0,0,0-.73,0v7.027c-.012,0-2.2,0-2.207,0V615h5.144v9.18C1387.37,624.174,1385.186,624.175,1385.175,624.175Zm2.937-14.99v-.551a.365.365,0,1,0-.73,0v5.633h-5.144v-5.509a.365.365,0,0,0-.73,0v5.509h-.949v-5.928a2.619,2.619,0,0,1,2.021-2.455,3.8,3.8,0,0,0,4.458,0,2.619,2.619,0,0,1,2.021,2.455c0,2.885.372,3.721,1.144,4.679a1.111,1.111,0,0,0-.365.243,1.066,1.066,0,0,0-.242.37C1388.607,612.755,1388.111,612.06,1388.111,609.185Zm2.243,5.107a.147.147,0,0,1-.015-.018.358.358,0,0,1-.093-.239.364.364,0,0,1,.365-.365.376.376,0,0,1,.2.06.411.411,0,0,1,.055.046l2.337,2.337-.516.516-2.1-2.1ZM1397,626a.2.2,0,0,1-.2.2c-3.414,0-3.451.075-3.451-.2v-.091a.441.441,0,0,1,.441-.441h1.026a.365.365,0,1,0,.729,0h1.011a.441.441,0,0,1,.441.441Zm-.441-1.262h-1.011v-1.809a.365.365,0,0,0-.729,0v1.809c-.1,0-1.01,0-1.1,0v-3.287h2.918v3.287C1396.61,624.743,1396.584,624.741,1396.559,624.741Zm6.354-14.859a3.7,3.7,0,0,1-.99,2.477l-1.185,1.2a1.091,1.091,0,0,0-.21-.3,1.057,1.057,0,0,0-.312-.217l.85-.861a3.826,3.826,0,0,0,1.109-2.7v-.43a3.158,3.158,0,0,1,1.01-2.318,4.005,4.005,0,0,0-.3.888,2.144,2.144,0,0,0,.029.859v.005C1402.922,608.578,1402.933,608.962,1402.912,609.882Zm3.388,14.76v-4.425a10.6,10.6,0,0,0,1.346-.152l-.294,4.651Zm-.73,0-1.052.074-.294-4.644a10.617,10.617,0,0,0,1.346.147Zm2.715,1.513a.045.045,0,0,1-.046.046h-4.651a.046.046,0,0,1-.046-.046.685.685,0,0,1,.684-.684h1.352a.365.365,0,0,0,.713,0h1.31A.685.685,0,0,1,1408.286,626.154Zm-2.341-6.652h-.022a7.229,7.229,0,0,1-4.168-1.186,12.7,12.7,0,0,1,2.317-5.819.349.349,0,0,0,.064-.173,10.166,10.166,0,0,0-.255-3.267q-.047-.131-.093-.257l-.066-.177a1.652,1.652,0,0,1-.113-.888,4.63,4.63,0,0,1,.316-.887c.017-.042.036-.083.053-.125a2.26,2.26,0,0,0,3.893.043c.333.811.514,1.093.238,1.857l-.066.177c-.031.084-.062.17-.093.259a10.148,10.148,0,0,0-.255,3.265.352.352,0,0,0,.064.173,12.7,12.7,0,0,1,2.318,5.819A7.207,7.207,0,0,1,1405.945,619.5Z" transform="translate(-1379.83 -597.486)" fill="#eb6520"/>
        <path id="Path_2285" data-name="Path 2285" d="M1505.106,570.484a2.77,2.77,0,0,1-.954-2.04,4.484,4.484,0,0,0-1.531-3.194,5.881,5.881,0,0,0-4.941,0,4.483,4.483,0,0,0-1.531,3.194,3,3,0,0,1-.538,1.6c-.355.469-.585.468-.542.769a2.5,2.5,0,0,0,1.6,2,.365.365,0,0,0,.257-.683,1.763,1.763,0,0,1-1.095-1.23,3.51,3.51,0,0,0,1.044-2.355c.507-3.809,2.914-3.047,3.329-3.1,2.047-.294,2.952,1.047,3.226,3.1a3.514,3.514,0,0,0,1.045,2.355,1.763,1.763,0,0,1-1.095,1.23.365.365,0,0,0,.257.683,2.5,2.5,0,0,0,1.6-1.995A.365.365,0,0,0,1505.106,570.484Z" transform="translate(-1474.046 -564.411)" fill="#eb6520"/>
        <path id="Path_2286" data-name="Path 2286" d="M1511.161,572.782c-.554-.373-.526.665-2.252,1.912a7.077,7.077,0,0,1-1.164.681.365.365,0,0,0,.154.7.374.374,0,0,0,.038,0c.49,3.482,4.189,3.57,4.8.149a.365.365,0,1,0,.328-.652,5.817,5.817,0,0,1-2.223-1.705q.222-.275.421-.571A.365.365,0,0,0,1511.161,572.782Zm.887,3.079c-.136,1.229-.861,2.151-1.7,2.151-.815,0-1.544-.9-1.7-2.094a.361.361,0,0,0-.062-.159,7.615,7.615,0,0,0,1.757-1.347A6.49,6.49,0,0,0,1512.048,575.861Z" transform="translate(-1484.24 -570.981)" fill="#eb6520"/>
        <path id="Path_2287" data-name="Path 2287" d="M1455.307,641.765a2.085,2.085,0,0,0,1.939-2.2c0-1,0-2.52-1.939-2.52s-1.939,1.517-1.939,2.52A2.085,2.085,0,0,0,1455.307,641.765Zm0-3.992c1.154,0,1.21.647,1.21,1.791a1.233,1.233,0,1,1-2.42,0C1454.1,638.419,1454.153,637.773,1455.307,637.773Z" transform="translate(-1439.954 -623.583)" fill="#eb6520"/>
      </g>
    </g>
  </g>
</svg>
