<svg xmlns="http://www.w3.org/2000/svg" width="27.192" height="29.443" viewBox="0 0 27.192 29.443">
  <g id="Group_2933" data-name="Group 2933" transform="translate(0 0)" style="isolation: isolate">
    <path id="Path_2275" data-name="Path 2275" d="M13.678,29.443C4.464,26.895,1.242,18.793,0,9.324A.584.584,0,0,1,.25,8.771,18.687,18.687,0,0,0,6.946.36.582.582,0,0,1,7.6.011,26.838,26.838,0,0,0,13.67.667,25.626,25.626,0,0,0,19.6.011a.583.583,0,0,1,.65.349,18.686,18.686,0,0,0,6.7,8.41.584.584,0,0,1,.245.554c-1.235,9.438-3.966,17.565-13.2,20.119Zm.156-1.179,1.367-.449c6.3-2.408,8.948-8.025,10.288-15.216l.484-3.1-.995-.755a19.536,19.536,0,0,1-5.262-6.714l-.354-.788-.388.077a24.471,24.471,0,0,1-5.3.518,24.37,24.37,0,0,1-4.653-.378L7.834,1.246l-.357.788A19.57,19.57,0,0,1,2.214,8.748L1.219,9.5l.5,3.087C3.142,19.765,6.1,25.4,12.463,27.815Zm-.214-2.324C6.6,24,4.158,17.821,3.227,10.684a.591.591,0,0,1,.242-.556A13.9,13.9,0,0,0,8.458,3.863a.589.589,0,0,1,.651-.35,20.187,20.187,0,0,0,4.543.492,19.135,19.135,0,0,0,4.431-.492.589.589,0,0,1,.651.35,13.915,13.915,0,0,0,4.99,6.265.591.591,0,0,1,.242.556c-.929,7.107-2.995,13.308-10.035,15.257Zm.156-1.181.972-.316C19.422,22.658,21.394,18.5,22.4,13.1l.35-2.242-.684-.52a14.91,14.91,0,0,1-4-5.1l-.222-.492-.179.036a18.5,18.5,0,0,1-4.015.393,18.554,18.554,0,0,1-3.525-.288l-.783-.143-.222.495a14.839,14.839,0,0,1-4,5.1l-.684.52L4.8,13.095c1.066,5.377,3.272,9.558,7.992,11.349ZM10.214,15.3a.587.587,0,0,1-.485-.969l3.222-3.7a.585.585,0,1,1,.885.765l-3.219,3.706A.587.587,0,0,1,10.214,15.3ZM7.283,14.171A.583.583,0,0,1,6.8,13.2l4.625-5.326a.586.586,0,0,1,.885.768L7.686,13.972A.6.6,0,0,1,7.283,14.171Z" transform="translate(0 0)" fill="#eb6520"/>
  </g>
</svg>
